<svg  viewBox="0 0 28 28"  xmlns="http://www.w3.org/2000/svg">
<path d="M5.59998 15.7217V14.0225C7.66053 15.7705 10.3754 16.5909 13.9984 16.5909C17.6215 16.5909 20.3363 15.7705 22.3969 14.0225V15.7217C20.2191 17.3233 17.5141 18.0655 13.9984 18.0655C10.4828 18.0655 7.77771 17.3233 5.59998 15.7217ZM5.59998 19.6866C5.59998 22.3819 8.98865 24.2862 13.9984 24.2862C19.0082 24.2862 22.3969 22.3819 22.3969 19.6866V7.87018C22.3969 5.40924 19.0375 3.71002 13.9984 3.71002C8.95936 3.71002 5.59998 5.40924 5.59998 7.87018V19.6866ZM7.17225 7.87018C7.17225 6.22955 9.90662 5.08697 13.9984 5.08697C18.0902 5.08697 20.8246 6.22955 20.8246 7.87018C20.8246 9.44244 18.0707 10.546 13.9984 10.546C9.92615 10.546 7.17225 9.44244 7.17225 7.87018Z" fill="currentColor"/>
</svg>
