<svg  viewBox="0 0 28 28" fill="none" xmlns="http://www.w3.org/2000/svg">
<path d="M15.9573 10.1367C16.5061 10.1367 17 9.62162 17 9.06837C17 8.49603 16.5061 8 15.9573 8H12.0244C11.4756 8 11 8.49603 11 9.06837C11 9.62162 11.4756 10.1367 12.0244 10.1367H15.9573ZM15.9573 15.0779C16.5061 15.0779 17 14.5628 17 13.9904C17 13.4181 16.5061 12.9412 15.9573 12.9412H12.0244C11.4756 12.9412 11 13.4181 11 13.9904C11 14.5628 11.4756 15.0779 12.0244 15.0779H15.9573ZM15.9573 20C16.5061 20 17 19.5229 17 18.9507C17 18.3783 16.5061 17.8823 15.9573 17.8823H12.0244C11.4756 17.8823 11 18.3783 11 18.9507C11 19.5229 11.4756 20 12.0244 20H15.9573Z" fill="currentColor"/>
</svg>
