<svg  viewBox="0 0 28 28"  xmlns="http://www.w3.org/2000/svg">
<path fill-rule="evenodd" clip-rule="evenodd" d="M19.9221 5.01001C21.9729 5.01001 22.9885 6.02564 22.9885 8.03735V19.9612C22.9885 21.9729 21.9729 22.9885 19.9221 22.9885H8.07642C6.0354 22.9885 5.01001 21.9827 5.01001 19.9612V8.03735C5.01001 6.01587 6.0354 5.01001 8.07642 5.01001H19.9221ZM8.62329 18.7991C8.26197 18.7991 8.00808 19.0628 8.00806 19.4045C8.00806 19.7365 8.26196 20.0002 8.62329 20.0002H15.8596C16.2112 20.0002 16.4651 19.7365 16.4651 19.4045C16.4651 19.0628 16.2112 18.7991 15.8596 18.7991H8.62329ZM8.62329 15.4592C8.26198 15.4592 8.00808 15.7229 8.00806 16.0549C8.00806 16.3966 8.26196 16.6604 8.62329 16.6604H18.4377C18.7795 16.6604 19.0334 16.3966 19.0334 16.0549C19.0334 15.7229 18.7795 15.4592 18.4377 15.4592H8.62329ZM9.11157 7.66626C8.48657 7.66626 8.10572 8.04712 8.10571 8.66235V11.1233C8.10571 11.7385 8.48657 12.1194 9.11157 12.1194H11.553C12.178 12.1194 12.5588 11.7385 12.5588 11.1233V8.66235C12.5588 8.04712 12.178 7.66626 11.553 7.66626H9.11157Z" fill="currentColor"/>
</svg>
