<svg width="338" height="210" viewBox="0 0 338 210" fill="none" xmlns="http://www.w3.org/2000/svg">
<path d="M194.31 89.0172C195.62 76.5872 198.96 65.3672 205.81 55.4172C215.35 41.5672 228.85 33.4372 245.1 30.3372C254.37 28.5672 263.91 27.6172 273.35 27.4372C294.77 27.0172 316.21 27.3072 337.93 27.3072V0.417224C336.8 0.317224 335.55 0.117224 334.29 0.117224C311.01 0.127224 287.71 -0.262775 264.43 0.327225C249.33 0.707225 234.37 3.02723 219.96 8.04722C198.04 15.6772 184.78 31.5372 170.96 50.3172L169 53.2572L167.04 50.3172C153.22 31.5372 139.96 15.6772 118.04 8.04722C103.63 3.02723 88.67 0.707225 73.57 0.327225C50.29 -0.262775 26.99 0.127224 3.71 0.117224C2.45 0.117224 1.2 0.317224 0.07 0.417224V27.3072C21.79 27.3072 43.23 27.0172 64.65 27.4372C74.09 27.6172 83.63 28.5672 92.9 30.3372C109.15 33.4372 122.65 41.5672 132.19 55.4172C139.04 65.3672 142.38 76.5872 143.69 89.0172H0V120.297H143.69C142.38 132.727 139.04 143.947 132.19 153.897C122.65 167.747 109.15 175.877 92.9 178.977C83.63 180.747 74.09 181.697 64.65 181.877C43.23 182.297 21.79 182.007 0.07 182.007V208.897C1.2 208.997 2.45 209.197 3.71 209.197C26.99 209.187 50.29 209.577 73.57 208.987C88.67 208.607 103.63 206.287 118.04 201.267C139.96 193.637 153.22 177.777 167.04 158.997L169 156.057L170.96 158.997C184.78 177.777 198.04 193.637 219.96 201.267C234.37 206.287 249.33 208.607 264.43 208.987C287.71 209.577 311.01 209.187 334.29 209.197C335.55 209.197 336.8 208.997 337.93 208.897V182.007C316.21 182.007 294.77 182.297 273.35 181.877C263.91 181.697 254.37 180.747 245.1 178.977C228.85 175.877 215.35 167.747 205.81 153.897C198.96 143.947 195.62 132.727 194.31 120.297H338V89.0172H194.31Z" fill="#F66B15"/>
</svg>
