<svg  viewBox="0 0 28 28"  xmlns="http://www.w3.org/2000/svg">
<path fill-rule="evenodd" clip-rule="evenodd" d="M13.9912 4.04004C19.4404 4.04007 23.9619 8.55178 23.9619 14.001C23.9619 19.4404 19.4502 23.9619 14.001 23.9619C8.56153 23.9619 4.04006 19.4404 4.04004 14.001C4.04004 8.55176 8.55176 4.04004 13.9912 4.04004ZM14.4688 9.16602C14.0879 9.16602 13.8242 9.26368 13.3945 9.55664L11.5781 10.7871C11.3633 10.9531 11.2656 11.0996 11.2656 11.3535C11.2656 11.666 11.5195 11.959 11.8418 11.959C11.998 11.959 12.1055 11.9395 12.3398 11.7832L13.6387 10.9238H13.707V17.8477C13.707 18.4141 14 18.7559 14.5078 18.7559C15.0254 18.7559 15.3184 18.4141 15.3184 17.8477V10.0742C15.3184 9.48828 15.0059 9.16602 14.4688 9.16602Z" fill="currentColor"/>
</svg>
