<svg  viewBox="0 0 28 28"  xmlns="http://www.w3.org/2000/svg">
<path fill-rule="evenodd" clip-rule="evenodd" d="M13.9911 4.03998C19.4404 4.03998 23.9619 8.5517 23.9619 14.0009C23.9619 19.4404 19.4502 23.9619 14.0009 23.9619C8.56146 23.9619 4.03998 19.4404 4.03998 14.0009C4.03998 8.5517 8.5517 4.03998 13.9911 4.03998ZM14.0302 9.20599C12.6044 9.20599 11.3447 10.0751 11.0126 11.1982C10.9638 11.3544 10.954 11.4716 10.954 11.6083C10.954 11.999 11.2177 12.2529 11.6181 12.2529C11.9697 12.2529 12.1552 12.0283 12.331 11.7451C12.5947 11.1396 13.1318 10.4951 14.0986 10.4951C15.0556 10.4951 15.6904 11.0517 15.6904 11.8818C15.6904 12.6142 15.0751 13.2294 14.4794 13.8544L11.2568 17.3017C11.0908 17.497 10.9931 17.7021 10.9931 17.9072C10.9931 18.3173 11.2665 18.5712 11.7158 18.5712H16.8915C17.2919 18.5712 17.5751 18.3173 17.5751 17.9072C17.5751 17.4873 17.2919 17.2431 16.8915 17.2431H13.2294V17.1747L15.6122 14.6259C16.5008 13.6787 17.1259 12.8779 17.1259 11.7548C17.1259 10.2314 15.8955 9.20599 14.0302 9.20599Z" fill="currentColor"/>
</svg>
