<svg  viewBox="0 0 28 28"  xmlns="http://www.w3.org/2000/svg">
<path fill-rule="evenodd" clip-rule="evenodd" d="M13.9911 4.03998C19.4404 4.03998 23.9619 8.5517 23.9619 14.0009C23.9619 19.4404 19.4502 23.9619 14.0009 23.9619C8.56146 23.9619 4.03998 19.4404 4.03998 14.0009C4.03998 8.5517 8.5517 4.03998 13.9911 4.03998ZM14.1181 9.20599C12.4775 9.20599 11.2372 9.96771 10.9638 11.1591C10.9345 11.3056 10.9247 11.413 10.9247 11.5595C10.9247 11.9599 11.2079 12.2333 11.6083 12.2333C11.9697 12.2333 12.1845 12.0576 12.3017 11.706C12.5263 10.954 13.1513 10.4853 14.0888 10.4853C15.0947 10.4853 15.7197 10.9833 15.7197 11.7939C15.7197 12.6239 15.0166 13.2294 14.0595 13.2294H13.4247C13.0536 13.2294 12.79 13.4833 12.79 13.8642C12.79 14.2158 13.0536 14.4794 13.4247 14.4794H14.1083C15.2411 14.4794 16.0224 15.1045 16.0224 16.0126C16.0224 16.9208 15.2314 17.5068 14.0595 17.5068C12.9658 17.5068 12.3603 16.9795 12.1161 16.2861C11.9794 15.9345 11.7744 15.7685 11.4228 15.7685C11.0126 15.7685 10.7197 16.0517 10.7197 16.4619C10.7197 16.6084 10.7392 16.6962 10.7685 16.8427C11.0712 18.0048 12.3798 18.7958 14.0302 18.7958C16.1982 18.7958 17.536 17.663 17.5361 16.0712C17.5361 14.8896 16.6376 13.9423 15.4169 13.8251V13.747C16.4325 13.6005 17.2138 12.6728 17.2138 11.6181C17.2138 10.2119 15.9248 9.206 14.1181 9.20599Z" fill="currentColor"/>
</svg>
