<svg viewBox="0 0 28 28"  xmlns="http://www.w3.org/2000/svg">
<path d="M14.5771 10.5146V15.3876H11.4033V15.329C12.1747 14.0106 13.454 12.1064 14.5087 10.5146H14.5771Z" fill="currentColor"/>
<path fill-rule="evenodd" clip-rule="evenodd" d="M13.9911 4.03998C19.4404 4.03998 23.9619 8.5517 23.9619 14.0009C23.9619 19.4404 19.4502 23.9619 14.0009 23.9619C8.56146 23.9619 4.03998 19.4404 4.03998 14.0009C4.03998 8.5517 8.5517 4.03998 13.9911 4.03998ZM14.8603 9.20599C14.1572 9.20599 13.7079 9.4599 13.3076 10.0654C12.2626 11.6474 11.0224 13.4833 10.1923 14.8408C9.98726 15.1825 9.91889 15.4267 9.91888 15.7294C9.91888 16.3251 10.3193 16.7158 10.9638 16.7158H14.5771V17.7411C14.5771 18.2684 14.8505 18.5908 15.3193 18.5908C15.7978 18.5908 16.0712 18.2782 16.0712 17.7411V16.7158H16.8427C17.2334 16.7157 17.5068 16.452 17.5068 16.0615C17.5068 15.6611 17.2431 15.3877 16.8427 15.3876H16.0712V10.2704C16.0712 9.63568 15.583 9.206 14.8603 9.20599Z" fill="currentColor"/>
</svg>
