<svg  viewBox="0 0 28 28"  xmlns="http://www.w3.org/2000/svg">
<path fill-rule="evenodd" clip-rule="evenodd" d="M13.9912 4.03998C19.4404 4.03998 23.9619 8.5517 23.9619 14.0009C23.9619 19.4404 19.4502 23.9619 14.001 23.9619C8.56152 23.9619 4.04004 19.4404 4.04004 14.0009C4.04004 8.5517 8.55176 4.03998 13.9912 4.03998ZM12.2627 9.4306C11.5986 9.4306 11.169 9.8017 11.1299 10.3876L10.8467 13.7275C10.8076 14.3134 11.1494 14.6943 11.7061 14.6943C12.0771 14.6943 12.3018 14.6162 12.7119 14.3134C13.1904 13.9033 13.5713 13.747 14.0791 13.747C15.1435 13.747 15.8564 14.4892 15.8564 15.6025C15.8564 16.706 15.0263 17.5263 13.9131 17.5263C13.083 17.5263 12.3799 17.1162 12.0479 16.4521C11.8721 16.1298 11.6279 15.9638 11.335 15.9638C10.9248 15.9638 10.6514 16.247 10.6514 16.6376C10.6514 16.8133 10.6904 16.9697 10.7588 17.1259C11.1592 18.1513 12.3311 18.7958 13.9424 18.7958C15.9834 18.7958 17.3896 17.5166 17.3896 15.5634C17.3896 13.7861 16.1103 12.5458 14.2646 12.5458C13.4444 12.5458 12.6045 12.9072 12.2432 13.4052H12.1748L12.4092 10.6806H16.4326C16.7744 10.6806 17.0283 10.4169 17.0283 10.0556C17.0283 9.68451 16.7841 9.4306 16.4326 9.4306H12.2627Z" fill="currentColor"/>
</svg>
