<svg  viewBox="0 0 28 28"  xmlns="http://www.w3.org/2000/svg">
<path d="M13.9955 4.44934C14.7181 4.44934 15.2845 3.8927 15.2845 3.17004C15.2845 2.45715 14.7084 1.88098 13.9955 1.88098C13.3021 1.88098 12.7162 2.46692 12.7162 3.17004C12.7162 3.88293 13.2826 4.44934 13.9955 4.44934ZM9.33727 7.14465C10.0599 7.14465 10.6166 6.57825 10.6166 5.85559C10.6166 5.1427 10.0502 4.57629 9.33727 4.57629C8.63414 4.57629 8.0482 5.15247 8.0482 5.85559C8.0482 6.56848 8.62438 7.14465 9.33727 7.14465ZM18.6634 7.14465C19.3861 7.14465 19.9427 6.57825 19.9427 5.85559C19.9427 5.1427 19.3763 4.57629 18.6634 4.57629C17.9603 4.57629 17.3744 5.15247 17.3744 5.85559C17.3744 6.56848 17.9505 7.14465 18.6634 7.14465ZM4.6693 9.86926C5.39195 9.86926 5.95836 9.30286 5.95836 8.5802C5.95836 7.86731 5.38219 7.3009 4.6693 7.3009C3.96617 7.3009 3.39 7.87707 3.39 8.5802C3.39 9.29309 3.95641 9.86926 4.6693 9.86926ZM23.2826 9.86926C24.015 9.86926 24.5716 9.30286 24.5716 8.5802C24.5716 7.86731 24.0052 7.3009 23.2826 7.3009C22.5892 7.3009 22.0033 7.88684 22.0033 8.5802C22.0033 9.29309 22.5795 9.86926 23.2826 9.86926ZM4.6693 15.2795C5.39195 15.2795 5.95836 14.7227 5.95836 14.0001C5.95836 13.2872 5.38219 12.7208 4.6693 12.7208C3.96617 12.7208 3.39 13.2969 3.39 14.0001C3.39 14.713 3.95641 15.2795 4.6693 15.2795ZM23.3216 15.2795C24.0345 15.2795 24.6107 14.713 24.6107 14.0001C24.6107 13.2969 24.0248 12.7208 23.3216 12.7208C22.6088 12.7208 22.0423 13.2872 22.0423 14.0001C22.0423 14.7227 22.599 15.2795 23.3216 15.2795ZM4.6693 20.6994C5.39195 20.6994 5.95836 20.1427 5.95836 19.4102C5.95836 18.7071 5.38219 18.131 4.6693 18.131C3.97594 18.131 3.39 18.7169 3.39 19.4102C3.39 20.1329 3.95641 20.6994 4.6693 20.6994ZM23.3216 20.6994C24.0345 20.6994 24.6107 20.1329 24.6107 19.4102C24.6107 18.7169 24.0248 18.131 23.3216 18.131C22.6088 18.131 22.0423 18.7071 22.0423 19.4102C22.0423 20.1427 22.599 20.6994 23.3216 20.6994ZM9.33727 23.424C10.0599 23.424 10.6166 22.8673 10.6166 22.1446C10.6166 21.4317 10.0502 20.8556 9.33727 20.8556C8.63414 20.8556 8.0482 21.4415 8.0482 22.1446C8.0482 22.8575 8.62438 23.424 9.33727 23.424ZM18.6634 23.424C19.3763 23.424 19.9427 22.8575 19.9427 22.1446C19.9427 21.4415 19.3568 20.8556 18.6634 20.8556C17.9505 20.8556 17.3744 21.4317 17.3744 22.1446C17.3744 22.8673 17.9408 23.424 18.6634 23.424ZM13.9955 26.1094C14.7181 26.1094 15.2845 25.5529 15.2845 24.8302C15.2845 24.1174 14.7084 23.551 13.9955 23.551C13.2923 23.551 12.7162 24.1271 12.7162 24.8302C12.7162 25.5431 13.2826 26.1094 13.9955 26.1094Z" fill="currentColor"/>
<path d="M13.9955 10.2306C14.9134 10.2306 15.6361 9.49818 15.6361 8.5802C15.6361 7.68177 14.9037 6.93958 13.9955 6.93958C13.1068 6.93958 12.3548 7.69153 12.3548 8.5802C12.3548 9.48841 13.097 10.2306 13.9955 10.2306ZM9.33727 12.926C10.2552 12.926 10.9779 12.2033 10.9779 11.2853C10.9779 10.3771 10.2357 9.64466 9.33727 9.64466C8.44859 9.64466 7.69664 10.3966 7.69664 11.2853C7.69664 12.1935 8.42906 12.926 9.33727 12.926ZM18.6634 12.926C19.5814 12.926 20.3041 12.2033 20.3041 11.2853C20.3041 10.3771 19.5619 9.64466 18.6634 9.64466C17.7748 9.64466 17.0228 10.3966 17.0228 11.2853C17.0228 12.1935 17.7552 12.926 18.6634 12.926ZM9.33727 18.3556C10.2455 18.3556 10.9779 17.633 10.9779 16.715C10.9779 15.8068 10.2357 15.0646 9.33727 15.0646C8.43883 15.0646 7.69664 15.8166 7.69664 16.715C7.69664 17.6135 8.42906 18.3556 9.33727 18.3556ZM18.6634 18.3556C19.5619 18.3556 20.3041 17.6135 20.3041 16.715C20.3041 15.8166 19.5521 15.0646 18.6634 15.0646C17.7552 15.0646 17.0228 15.8068 17.0228 16.715C17.0228 17.633 17.7455 18.3556 18.6634 18.3556ZM13.9955 21.0607C14.9134 21.0607 15.6361 20.3283 15.6361 19.4103C15.6361 18.5119 14.8939 17.7697 13.9955 17.7697C13.1068 17.7697 12.3548 18.5217 12.3548 19.4103C12.3548 20.3185 13.097 21.0607 13.9955 21.0607Z" fill="currentColor"/>
<path d="M13.9955 15.8751C15.0404 15.8751 15.8802 15.045 15.8802 14.0001C15.8802 12.9649 15.0306 12.1251 13.9955 12.1251C12.9798 12.1251 12.1205 12.9747 12.1205 14.0001C12.1205 15.0352 12.9603 15.8751 13.9955 15.8751Z" fill="currentColor"/>
</svg>
