<svg  viewBox="0 0 28 28"  xmlns="http://www.w3.org/2000/svg">
<path d="M8.64429 22.9885H19.3572C21.281 22.9885 22.3064 21.9925 22.3064 20.0784V10.7327H5.69507V20.0784C5.69507 22.0022 6.72046 22.9885 8.64429 22.9885ZM10.783 14.2581C10.3728 14.2581 10.0896 13.9749 10.0896 13.5452V13.2424C10.0896 12.8127 10.3728 12.5393 10.783 12.5393H17.2283C17.6384 12.5393 17.9314 12.8127 17.9314 13.2424V13.5452C17.9314 13.9749 17.6384 14.2581 17.2283 14.2581H10.783ZM5.90015 9.39478H22.1013C23.2048 9.39478 23.7615 8.74048 23.7615 7.64673V6.75806C23.7615 5.66431 23.2048 5.01001 22.1013 5.01001H5.90015C4.85522 5.01001 4.23999 5.66431 4.23999 6.75806V7.64673C4.23999 8.74048 4.79663 9.39478 5.90015 9.39478Z" fill="currentColor"/>
</svg>
