<svg  viewBox="0 0 28 28"  xmlns="http://www.w3.org/2000/svg">
<path d="M22.2471 6.32001C21.7393 6.32001 21.378 6.67157 21.378 7.17938C21.378 7.53095 21.3975 7.84345 21.3975 8.3122C21.3975 11.9352 20.1377 13.4098 16.5538 13.4098H9.81546L7.41311 13.5563L10.7139 10.5388L12.8819 8.33173C13.0381 8.17548 13.1162 7.95087 13.1162 7.71649C13.1162 7.22821 12.7452 6.87665 12.2666 6.87665C12.0323 6.87665 11.8272 6.95477 11.6221 7.14032L5.13773 13.6247C4.94241 13.8102 4.83499 14.0446 4.83499 14.279C4.83499 14.5231 4.94241 14.7477 5.13773 14.9431L11.6026 21.3981C11.8174 21.6032 12.0323 21.6911 12.2666 21.6911C12.7452 21.6911 13.1162 21.3395 13.1162 20.8512C13.1162 20.6169 13.0381 20.3923 12.8819 20.2262L10.7139 18.0192L7.42288 15.0212L9.81546 15.1579H16.6416C21.2803 15.1579 23.1651 13.1266 23.1651 8.40009C23.1651 7.82392 23.1455 7.3454 23.087 7.04266C22.9991 6.65204 22.7647 6.32001 22.2471 6.32001Z" fill="currentColor"/>
</svg>
