<svg  viewBox="0 0 28 28"  xmlns="http://www.w3.org/2000/svg">
<path d="M14.0014 22.6068C14.5092 22.6068 14.8705 22.2455 14.8705 21.7377V11.8744L14.8022 9.78454L17.7416 12.9974L19.9291 15.1556C20.0854 15.3119 20.3198 15.3998 20.5541 15.3998C21.0424 15.3998 21.4038 15.0287 21.4038 14.5404C21.4038 14.306 21.3061 14.0912 21.1108 13.8861L14.6557 7.42126C14.4702 7.22595 14.2358 7.11853 14.0014 7.11853C13.7573 7.11853 13.5327 7.22595 13.3471 7.42126L6.88226 13.8861C6.69672 14.0912 6.59906 14.306 6.59906 14.5404C6.59906 15.0287 6.95062 15.3998 7.44867 15.3998C7.68305 15.3998 7.90766 15.3119 8.07367 15.1556L10.2612 12.9974L13.2006 9.77478L13.1225 11.8744V21.7377C13.1225 22.2455 13.4838 22.6068 14.0014 22.6068ZM7.39984 7.13806H20.5737C21.0815 7.13806 21.433 6.77673 21.433 6.26892C21.433 5.76111 21.0815 5.39001 20.5737 5.39001H7.39984C6.90179 5.39001 6.56 5.76111 6.56 6.26892C6.56 6.77673 6.90179 7.13806 7.39984 7.13806Z" fill="currentColor"/>
</svg>
