<svg viewBox="0 0 28 28"  xmlns="http://www.w3.org/2000/svg">
<path d="M4.76416 21.4047C5.28174 21.4047 5.64307 21.0629 5.64307 20.5648V7.46912C5.64307 6.9613 5.28174 6.59998 4.76416 6.59998C4.25635 6.59998 3.89502 6.9613 3.89502 7.46912V20.5648C3.89502 21.0629 4.25635 21.4047 4.76416 21.4047ZM13.0552 21.4047C13.5435 21.4047 13.9145 21.0531 13.9145 20.5648C13.9145 20.3402 13.8267 20.1059 13.6802 19.9496L11.4927 17.723L7.65479 14.2367L7.45947 14.7738L10.3696 14.8812H23.2407C23.7388 14.8812 24.1001 14.5101 24.1001 14.0023C24.1001 13.4945 23.7388 13.1332 23.2407 13.1332H10.3696L7.45947 13.2406L7.65479 13.7875L11.4927 10.2816L13.6802 8.06482C13.8267 7.90857 13.9145 7.6742 13.9145 7.43982C13.9145 6.9613 13.5435 6.59998 13.0552 6.59998C12.8306 6.59998 12.6255 6.68787 12.4302 6.87341L5.93604 13.348C5.74072 13.5433 5.6333 13.7679 5.6333 14.0023C5.6333 14.2465 5.74072 14.4711 5.93604 14.6566L12.4302 21.141C12.6255 21.3266 12.8306 21.4047 13.0552 21.4047Z" fill="currentColor"/>
</svg>
