<svg  viewBox="0 0 28 28"  xmlns="http://www.w3.org/2000/svg">
<path d="M5.75296 6.315C5.23538 6.315 5.00101 6.64703 4.92288 7.03766C4.85452 7.34039 4.83499 7.81891 4.83499 8.39508C4.83499 13.1216 6.72952 15.1529 11.3584 15.1529H18.1846L20.5772 15.0162L17.2862 18.0142L15.1182 20.2212C14.962 20.3873 14.8838 20.6119 14.8838 20.8462C14.8838 21.3345 15.2549 21.6861 15.7432 21.6861C15.9678 21.6861 16.1827 21.5982 16.3975 21.3931L22.8623 14.9381C23.0674 14.7427 23.1651 14.5181 23.1651 14.274C23.1651 14.0396 23.0674 13.8052 22.8623 13.6197L16.378 7.13531C16.1827 6.94977 15.9678 6.87164 15.7432 6.87164C15.2549 6.87164 14.8838 7.22321 14.8838 7.71148C14.8838 7.94586 14.9717 8.17047 15.1182 8.32672L17.2862 10.5338L20.587 13.5513L18.1846 13.4048H11.4463C7.86233 13.4048 6.60257 11.9302 6.60257 8.30719C6.60257 7.83844 6.63187 7.52594 6.63187 7.17438C6.63187 6.66656 6.26077 6.315 5.75296 6.315Z" fill="currentColor"/>
</svg>
