<svg  viewBox="0 0 28 28" xmlns="http://www.w3.org/2000/svg">
<path d="M13.9916 5.39001C13.4838 5.39001 13.1224 5.75131 13.1224 6.25911L13.1224 16.1224L13.1908 18.2123L10.2514 14.9994L8.06388 12.8412C7.90758 12.6849 7.67318 12.597 7.43888 12.597C6.95058 12.597 6.58918 12.9681 6.58918 13.4564C6.58918 13.6908 6.68688 13.9056 6.88218 14.1107L13.3373 20.5756C13.5228 20.7709 13.7572 20.8783 13.9916 20.8783C14.2357 20.8783 14.4603 20.7709 14.6459 20.5756L21.1107 14.1107C21.2963 13.9056 21.3939 13.6908 21.3939 13.4564C21.3939 12.9681 21.0424 12.597 20.5443 12.597C20.3099 12.597 20.0853 12.6849 19.9193 12.8412L17.7318 14.9994L14.7924 18.222L14.8705 16.1224L14.8705 6.25911C14.8705 5.75131 14.5092 5.39001 13.9916 5.39001ZM20.5931 20.8588L7.41928 20.8588C6.91148 20.8588 6.55998 21.2201 6.55998 21.7279C6.55998 22.2357 6.91148 22.6068 7.41928 22.6068L20.5931 22.6068C21.0912 22.6068 21.433 22.2357 21.433 21.7279C21.433 21.2201 21.0912 20.8588 20.5931 20.8588Z" fill="currentColor"/>
</svg>
