<svg  viewBox="0 0 28 28"  xmlns="http://www.w3.org/2000/svg">
<path d="M20.2312 22.8865L25.1531 17.8377C25.3289 17.6717 25.4266 17.4178 25.4266 17.1932C25.4266 16.6756 25.075 16.3338 24.5672 16.3338C24.3133 16.3338 24.1277 16.4119 23.9617 16.5779L21.9305 18.6775L20.3582 20.5037L20.4461 18.2478V5.69897C20.4461 5.19116 20.0848 4.82007 19.577 4.82007C19.0594 4.82007 18.698 5.19116 18.698 5.69897V18.2478L18.7957 20.5037L17.2234 18.6775L15.1922 16.5779C15.0262 16.4119 14.8309 16.3338 14.5867 16.3338C14.0789 16.3338 13.7176 16.6756 13.7176 17.1932C13.7176 17.4178 13.825 17.6717 14.0008 17.8377L18.9227 22.8865C19.284 23.2674 19.8504 23.2771 20.2312 22.8865Z" fill="currentColor"/>
<path d="M7.78009 5.11302L2.84845 10.1423C2.68243 10.3181 2.57501 10.572 2.57501 10.7868C2.57501 11.3044 2.92657 11.656 3.43439 11.656C3.68829 11.656 3.8836 11.5681 4.04962 11.4021L6.08087 9.30248L7.65313 7.48607L7.55548 9.74193V22.2907C7.55548 22.8083 7.91681 23.1696 8.43439 23.1696C8.9422 23.1696 9.30353 22.8083 9.30353 22.2907V9.74193L9.21563 7.48607L10.7781 9.30248L12.8191 11.4021C12.9852 11.5681 13.1707 11.656 13.4246 11.656C13.9324 11.656 14.284 11.3044 14.284 10.7868C14.284 10.572 14.1863 10.3181 14.0105 10.1423L9.08868 5.11302C8.72735 4.73216 8.15118 4.71263 7.78009 5.11302Z" fill="currentColor"/>
</svg>
