<svg  viewBox="0 0 28 28"  xmlns="http://www.w3.org/2000/svg">
<path d="M14.0009 23.9619C19.4502 23.9619 23.9619 19.4404 23.9619 14.0009C23.9619 8.5517 19.4404 4.03998 13.9912 4.03998C8.55173 4.03998 4.04001 8.5517 4.04001 14.0009C4.04001 19.4404 8.56149 23.9619 14.0009 23.9619ZM14.0009 22.3017C9.39157 22.3017 5.70993 18.6103 5.70993 14.0009C5.70993 9.39154 9.38181 5.70014 13.9912 5.70014C18.6005 5.70014 22.3017 9.39154 22.3017 14.0009C22.3017 18.6103 18.6103 22.3017 14.0009 22.3017Z" fill="currentColor"/>
<path d="M12.9267 18.6396C13.249 18.6396 13.5224 18.4834 13.7177 18.1806L18.1806 11.1591C18.288 10.9638 18.415 10.749 18.415 10.5341C18.415 10.0947 18.0244 9.81146 17.6142 9.81146C17.3701 9.81146 17.1259 9.96771 16.9404 10.2509L12.8877 16.7548L10.9638 14.2646C10.7295 13.9521 10.5146 13.874 10.2412 13.874C9.82126 13.874 9.48923 14.2158 9.48923 14.6455C9.48923 14.8603 9.57712 15.0654 9.71384 15.2509L12.0966 18.1806C12.3408 18.5029 12.6045 18.6396 12.9267 18.6396Z" fill="currentColor"/>
</svg>
