<svg  viewBox="0 0 28 28"  xmlns="http://www.w3.org/2000/svg">
<path d="M13.9912 4.52826V5.3681H16.4326C15.6416 5.03607 14.8212 4.75287 13.9912 4.52826ZM13.9912 6.06146V7.07709H19.0302C18.9033 6.71576 18.7568 6.37396 18.6005 6.06146H13.9912ZM13.9912 8.16107V9.16693H21.2177C21.1494 8.82514 21.0712 8.48334 20.9834 8.16107H13.9912ZM13.9912 10.2509V11.2665H22.7509C22.7216 10.9247 22.6826 10.5829 22.6338 10.2509H13.9912ZM13.9912 12.3505V13.3564H22.8193C22.8095 13.0244 22.7998 12.6826 22.7802 12.3505H13.9912ZM13.9912 14.4404V15.456H22.7802C22.7998 15.124 22.8095 14.7822 22.8193 14.4404H13.9912ZM13.9912 16.54V17.5556H22.6338C22.6826 17.2138 22.7216 16.8818 22.7509 16.54H13.9912ZM13.9912 18.6396V19.6455H20.9834C21.0712 19.3232 21.1494 18.9814 21.2177 18.6396H13.9912ZM13.9912 20.9248V21.9404H18.6005C18.7568 21.6181 18.9033 21.2861 19.0302 20.9248H13.9912ZM13.9912 22.6338V23.4638C14.8212 23.2392 15.6416 22.9658 16.4326 22.6338H13.9912ZM14.0009 23.9619C19.4502 23.9619 23.9619 19.4404 23.9619 14.0009C23.9619 8.5517 19.4404 4.03998 13.9912 4.03998C8.55173 4.03998 4.04001 8.5517 4.04001 14.0009C4.04001 19.4404 8.56149 23.9619 14.0009 23.9619ZM14.0009 22.3017C9.39157 22.3017 5.70993 18.6103 5.70993 14.0009C5.70993 9.39154 9.38181 5.70014 13.9912 5.70014C18.6005 5.70014 22.3017 9.39154 22.3017 14.0009C22.3017 18.6103 18.6103 22.3017 14.0009 22.3017Z" fill="currentColor"/>
</svg>
