<svg  viewBox="0 0 28 28"  xmlns="http://www.w3.org/2000/svg">
<path d="M5.0654 14.0009C5.0654 19.0205 8.98142 22.9267 13.9912 22.9267V5.06537C8.98142 5.06537 5.0654 8.98139 5.0654 14.0009ZM13.4931 6.06146H16.9697V4.78217H13.4931V6.06146ZM13.4931 8.16107H20.5634V7.07709H13.4931V8.16107ZM13.4931 10.2509H21.9599V9.16693H13.4931V10.2509ZM13.4931 12.3505H23.0048V11.2665H13.4931V12.3505ZM13.4931 14.4404H23.0048V13.3564H13.4931V14.4404ZM13.4931 16.54H23.0048V15.456H13.4931V16.54ZM13.4931 18.6396H21.9599V17.5556H13.4931V18.6396ZM13.4931 20.9248H20.5634V19.6455H13.4931V20.9248ZM13.4931 23.2197H16.9697V21.9404H13.4931V23.2197ZM14.0009 23.9619C19.4502 23.9619 23.9619 19.4404 23.9619 14.0009C23.9619 8.5517 19.4404 4.03998 13.9912 4.03998C8.55173 4.03998 4.04001 8.5517 4.04001 14.0009C4.04001 19.4404 8.56149 23.9619 14.0009 23.9619ZM14.0009 22.3017C9.39157 22.3017 5.70993 18.6103 5.70993 14.0009C5.70993 9.39154 9.38181 5.70014 13.9912 5.70014C18.6005 5.70014 22.3017 9.39154 22.3017 14.0009C22.3017 18.6103 18.6103 22.3017 14.0009 22.3017Z" fill="currentColor"/>
</svg>
