<svg  viewBox="0 0 28 28"  xmlns="http://www.w3.org/2000/svg">
<path fill-rule="evenodd" clip-rule="evenodd" d="M21.0957 5.01001C23.1367 5.01001 24.1621 6.01587 24.1621 8.03735V19.9612C24.1621 21.9827 23.1367 22.9885 21.0957 22.9885L12.6191 22.9788C11.4766 22.9788 10.5 22.6272 9.68945 21.7874L3.92773 15.8401C3.2832 15.1858 3 14.5901 3 13.9846C3 13.3694 3.29297 12.7835 3.92773 12.1292L9.67969 6.15259C10.4805 5.30298 11.4668 5.01001 12.6094 5.01001H21.0957ZM18.6738 9.90259C18.459 9.90259 18.2832 9.98071 18.1172 10.1467L15.373 12.8713L12.6484 10.1565C12.4922 10.01 12.3164 9.92212 12.0918 9.92212C11.6426 9.92212 11.2812 10.2737 11.2812 10.7229C11.2813 10.9377 11.3691 11.1331 11.5156 11.2893L14.2305 14.0042L11.5156 16.7092C11.3692 16.8654 11.2813 17.0608 11.2812 17.2756C11.2812 17.7345 11.6426 18.0959 12.0918 18.0959C12.3164 18.0959 12.5215 18.0081 12.6777 17.8616L15.373 15.137L18.0781 17.8616C18.2246 18.0081 18.4297 18.0959 18.6543 18.0959C19.1133 18.0959 19.4648 17.7345 19.4648 17.2756C19.4648 17.051 19.3965 16.8557 19.2305 16.6995L16.5254 14.0042L19.2402 11.2795C19.416 11.1038 19.4746 10.928 19.4746 10.7034C19.4746 10.2639 19.123 9.9026 18.6738 9.90259Z" fill="currentColor"/>
</svg>
