<svg  viewBox="0 0 28 28"  xmlns="http://www.w3.org/2000/svg">
<path d="M10.1795 9.04761C9.81817 9.04761 9.5545 8.76441 9.5545 8.41284C9.5545 8.07105 9.81817 7.80737 10.1795 7.80737H17.826C18.1776 7.80737 18.4412 8.07105 18.4412 8.41284C18.4412 8.76441 18.1776 9.04761 17.826 9.04761H10.1795ZM10.1795 12.5632C9.81817 12.5632 9.5545 12.28 9.5545 11.9285C9.5545 11.5867 9.81817 11.323 10.1795 11.323H17.826C18.1776 11.323 18.4412 11.5867 18.4412 11.9285C18.4412 12.28 18.1776 12.5632 17.826 12.5632H10.1795ZM10.1795 16.0788C9.81817 16.0788 9.5545 15.8054 9.5545 15.4636C9.5545 15.112 9.81817 14.8386 10.1795 14.8386H13.7928C14.1639 14.8386 14.4178 15.112 14.4178 15.4636C14.4178 15.8054 14.1639 16.0788 13.7928 16.0788H10.1795ZM5.78497 21.4109C5.78497 23.4519 6.79083 24.4675 8.81231 24.4675H19.1834C21.2049 24.4675 22.2108 23.4519 22.2108 21.4109V6.59644C22.2108 4.56519 21.2049 3.53003 19.1834 3.53003H8.81231C6.79083 3.53003 5.78497 4.56519 5.78497 6.59644V21.4109Z" fill="currentColor"/>
</svg>
