<svg  viewBox="0 0 8 28" fill="none" xmlns="http://www.w3.org/2000/svg">
<path d="M5.95732 10.1367C6.5061 10.1367 7 9.62162 7 9.06837C7 8.49603 6.5061 8 5.95732 8H2.0244C1.47562 8 1 8.49603 1 9.06837C1 9.62162 1.47562 10.1367 2.0244 10.1367H5.95732ZM5.95732 15.0779C6.5061 15.0779 7 14.5628 7 13.9904C7 13.4181 6.5061 12.9412 5.95732 12.9412H2.0244C1.47562 12.9412 1 13.4181 1 13.9904C1 14.5628 1.47562 15.0779 2.0244 15.0779H5.95732ZM5.95732 20C6.5061 20 7 19.5229 7 18.9507C7 18.3783 6.5061 17.8823 5.95732 17.8823H2.0244C1.47562 17.8823 1 18.3783 1 18.9507C1 19.5229 1.47562 20 2.0244 20H5.95732Z" fill="currentColor"/>
</svg>
