<svg  viewBox="0 0 28 28"  xmlns="http://www.w3.org/2000/svg">
<path d="M14.0208 15.126C14.4212 15.126 14.7923 14.9405 15.222 14.5108L23.718 6.1026C23.3567 5.75104 22.6829 5.58502 21.7161 5.58502H5.99341C5.17309 5.58502 4.59692 5.74127 4.27466 6.06354L12.8196 14.5108C13.2395 14.9307 13.6106 15.126 14.0208 15.126ZM3.46411 20.8389L10.3684 14.0128L3.44458 7.18658C3.2981 7.46002 3.21997 7.92877 3.21997 8.6026V19.3839C3.21997 20.0772 3.2981 20.5655 3.46411 20.8389ZM6.28638 22.4112H22.0091C22.8294 22.4112 23.3958 22.255 23.718 21.9425L16.677 14.9698L16.0325 15.6241C15.3587 16.2686 14.7239 16.5616 14.0208 16.5616C13.3079 16.5616 12.6731 16.2686 12.009 15.6241L11.3547 14.9698L4.33325 21.9327C4.70435 22.255 5.34888 22.4112 6.28638 22.4112ZM24.5481 20.8292C24.7044 20.546 24.7825 20.0675 24.7825 19.3839V8.6026C24.7825 7.9483 24.7044 7.47955 24.5677 7.21588L17.6634 14.0128L24.5481 20.8292Z" fill="currentColor"/>
</svg>
