<svg  viewBox="0 0 28 28"  xmlns="http://www.w3.org/2000/svg">
<path fill-rule="evenodd" clip-rule="evenodd" d="M13.9994 4.72498C14.8978 4.72498 15.767 5.1742 16.2748 6.06287L23.8529 19.266C24.097 19.6957 24.2338 20.1742 24.2338 20.6332C24.2338 22.1273 23.2279 23.2796 21.5677 23.2797H6.43103C4.77087 23.2797 3.76502 22.1273 3.76501 20.6332C3.76501 20.1742 3.88221 19.7055 4.14587 19.266L11.724 6.06287C12.222 5.1742 13.1009 4.72498 13.9994 4.72498ZM14.0092 17.9281C13.4135 17.9281 12.9154 18.3969 12.9154 18.9828C12.9154 19.559 13.4233 20.0277 14.0092 20.0277C14.5853 20.0277 15.0931 19.5688 15.0931 18.9828C15.0931 18.3871 14.5951 17.9281 14.0092 17.9281ZM13.9994 9.74451C13.4525 9.74452 13.0717 10.1156 13.0814 10.6332L13.2084 15.9457C13.2181 16.4633 13.5014 16.7562 14.0092 16.7562C14.4877 16.7562 14.7709 16.473 14.7806 15.9457L14.9271 10.6429C14.9369 10.1254 14.5267 9.74451 13.9994 9.74451Z" fill="currentColor"/>
</svg>
