<svg  viewBox="0 0 28 28"  xmlns="http://www.w3.org/2000/svg">
<path d="M7.89441 22.7643C10.8241 22.7643 13.158 19.2096 13.158 13.9948C13.158 8.77991 10.8241 5.23499 7.89441 5.23499C5.15026 5.23499 2.92371 8.36976 2.66003 13.0768C3.11902 12.1783 3.99792 11.6412 5.15026 11.6412C6.84948 11.6412 7.97253 12.8326 7.97253 14.5905C7.97253 16.3776 6.84948 17.5592 5.15026 17.5592C4.11511 17.5592 3.2948 17.1295 2.80652 16.3873C3.40222 20.2643 5.44323 22.7643 7.89441 22.7643ZM4.34948 14.2389C4.70105 14.3073 5.02331 13.985 5.12097 13.5455C5.20886 13.1061 4.99401 12.6862 4.62292 12.6178C4.28112 12.5494 3.9198 12.8717 3.84167 13.3112C3.76355 13.7604 3.99792 14.1803 4.34948 14.2389ZM20.0721 22.7643C23.0018 22.7643 25.3358 19.2096 25.3358 13.9948C25.3358 8.77991 23.0018 5.23499 20.0721 5.23499C17.328 5.23499 15.1014 8.36976 14.8377 13.0768C15.2967 12.1783 16.1756 11.6412 17.3182 11.6412C19.0272 11.6412 20.1502 12.8326 20.1502 14.5905C20.1502 16.3776 19.0272 17.5592 17.3182 17.5592C16.2928 17.5592 15.4725 17.1295 14.9842 16.3873C15.5799 20.2643 17.6209 22.7643 20.0721 22.7643ZM16.5272 14.2389C16.869 14.3073 17.2108 13.985 17.2987 13.5455C17.3768 13.1061 17.162 12.6764 16.8006 12.6178C16.4588 12.5494 16.0975 12.8717 16.0194 13.3112C15.9412 13.7604 16.1659 14.1705 16.5272 14.2389Z" fill="currentColor"/>
</svg>
