<svg  viewBox="0 0 28 28"  xmlns="http://www.w3.org/2000/svg">
<path d="M7.93652 22.9027C10.9053 22.9027 13.2784 19.2895 13.2784 13.9965C13.2784 8.69373 10.9053 5.09998 7.93652 5.09998C4.95801 5.09998 2.58496 8.69373 2.58496 13.9965C2.58496 19.2895 4.95801 22.9027 7.93652 22.9027ZM7.93652 21.5258C5.79785 21.5355 3.99121 18.4691 3.99121 13.9965C3.99121 9.5531 5.79785 6.49646 7.93652 6.47693C10.0947 6.46717 11.9014 9.52381 11.9014 13.9965C11.9014 18.4398 10.0947 21.5062 7.93652 21.5258ZM5.82715 17.4438C7.45801 17.4438 8.54199 16.3109 8.54199 14.5922C8.54199 12.9027 7.45801 11.7601 5.82715 11.7601C4.18652 11.7601 3.10254 12.9027 3.10254 14.5922C3.10254 16.3109 4.18652 17.4438 5.82715 17.4438ZM5.05566 14.2601C4.7041 14.2113 4.48926 13.7914 4.56738 13.3617C4.65527 12.9418 4.9873 12.6293 5.31934 12.6976C5.6709 12.766 5.88574 13.1664 5.79785 13.5863C5.71973 14.016 5.39746 14.3187 5.05566 14.2601ZM20.0655 22.9027C23.044 22.9027 25.417 19.2895 25.417 13.9965C25.417 8.69373 23.044 5.09998 20.0655 5.09998C17.0967 5.09998 14.7237 8.69373 14.7237 13.9965C14.7237 19.2895 17.0967 22.9027 20.0655 22.9027ZM20.0655 21.516C17.917 21.516 16.1006 18.4594 16.1006 13.9965C16.1006 9.5531 17.9073 6.49646 20.0655 6.4867C22.2041 6.4867 24.0205 9.54333 24.0205 13.9965C24.0205 18.4496 22.2041 21.5062 20.0655 21.516ZM17.9463 17.4438C19.5772 17.4438 20.6807 16.3109 20.6807 14.5922C20.6807 12.9027 19.5772 11.7601 17.9463 11.7601C16.3155 11.7601 15.2217 12.9027 15.2217 14.5922C15.2217 16.3109 16.3155 17.4438 17.9463 17.4438ZM17.1748 14.2601C16.833 14.2015 16.6084 13.7914 16.6963 13.3617C16.7842 12.9418 17.1065 12.6293 17.4483 12.6976C17.7998 12.7562 18.0049 13.1664 17.917 13.5863C17.8389 14.016 17.5166 14.3187 17.1748 14.2601Z" fill="currentColor"/>
</svg>
