<svg  viewBox="0 0 28 28"  xmlns="http://www.w3.org/2000/svg">
<path d="M14.0009 23.415C16.7158 23.415 18.9326 19.4013 18.9326 14.0204C18.9326 8.61029 16.7255 4.59662 14.0009 4.59662C11.2763 4.59662 9.06931 8.61029 9.06931 14.0204C9.06931 19.4013 11.2861 23.415 14.0009 23.415ZM14.0009 5.77826C15.915 5.77826 17.624 9.58686 17.624 14.0204C17.624 18.3759 15.915 22.2236 14.0009 22.2236C12.0869 22.2236 10.3779 18.3759 10.3779 14.0204C10.3779 9.58686 12.0869 5.77826 14.0009 5.77826ZM13.3662 4.73334V23.2295H14.6455V4.73334H13.3662ZM14.0009 17.6728C10.9931 17.6728 8.32712 18.4638 6.95993 19.7236L7.94626 20.5341C9.23532 19.5088 11.3349 18.9521 14.0009 18.9521C16.667 18.9521 18.7666 19.5088 20.0556 20.5341L21.042 19.7236C19.6748 18.4638 17.0088 17.6728 14.0009 17.6728ZM23.0146 13.3564H4.98727V14.6357H23.0146V13.3564ZM14.0009 10.3779C17.0088 10.3779 19.6748 9.58686 21.042 8.32709L20.0556 7.51654C18.7666 8.53217 16.667 9.09857 14.0009 9.09857C11.3349 9.09857 9.23532 8.53217 7.94626 7.51654L6.95993 8.32709C8.32712 9.58686 10.9931 10.3779 14.0009 10.3779ZM14.0009 23.9619C19.4502 23.9619 23.9619 19.4404 23.9619 14.0009C23.9619 8.5517 19.4404 4.03998 13.9912 4.03998C8.55173 4.03998 4.04001 8.5517 4.04001 14.0009C4.04001 19.4404 8.56149 23.9619 14.0009 23.9619ZM14.0009 22.6338C9.28415 22.6338 5.36813 18.7177 5.36813 14.0009C5.36813 9.28412 9.27439 5.3681 13.9912 5.3681C18.708 5.3681 22.6338 9.28412 22.6338 14.0009C22.6338 18.7177 18.7177 22.6338 14.0009 22.6338Z" fill="currentColor"/>
</svg>
