<svg  viewBox="0 0 28 28"  xmlns="http://www.w3.org/2000/svg">
<path d="M9.4978 3.23999C6.80249 3.23999 4.61499 5.42749 4.61499 8.1228C4.61499 9.28491 5.02515 10.3591 5.69897 11.199C5.86499 11.4041 6.0603 11.4822 6.24585 11.4822C6.72437 11.4822 7.13452 10.9158 6.72437 10.4275C6.19702 9.80249 5.89429 9.00171 5.89429 8.1228C5.89429 6.13061 7.50561 4.51929 9.4978 4.51929C11.49 4.51929 13.0915 6.13061 13.0915 8.1228C13.0915 8.1814 13.0915 8.23999 13.0915 8.32788C13.1013 8.76733 13.404 8.96265 13.7165 8.96265C14.0193 8.96265 14.3318 8.7478 14.3611 8.40601C14.3709 8.33765 14.3709 8.24976 14.3709 8.1228C14.3709 5.42749 12.1931 3.23999 9.4978 3.23999Z" fill="currentColor"/>
<path d="M18.99 24.2849C22.9744 22.8396 24.3025 19.5291 22.7498 15.2615L22.115 13.5037C21.5193 11.8923 20.3962 11.1892 19.5173 11.5017C19.3123 11.5798 19.2439 11.7263 19.3123 11.9119L19.5955 12.6931C19.7322 13.0642 19.615 13.3084 19.3904 13.3962C19.156 13.4744 18.9021 13.367 18.7654 12.9959L18.5798 12.4881C18.2283 11.531 17.3982 11.1306 16.5779 11.4334C16.2068 11.5701 16.0896 11.7849 16.2068 12.0974L16.5974 13.1619C16.7244 13.533 16.6072 13.7771 16.3923 13.865C16.1482 13.9529 15.8943 13.8357 15.7576 13.4646L15.406 12.4881C15.0154 11.4138 14.2146 11.1404 13.4139 11.4334C13.0623 11.5603 12.9353 11.7947 13.0428 12.0974L13.8045 14.1775C13.9412 14.5486 13.8143 14.7927 13.5994 14.8806C13.3553 14.9685 13.1014 14.8513 12.9646 14.4802L10.4353 7.51735C10.1912 6.83376 9.58574 6.56032 9.00957 6.7654C8.39434 6.99001 8.13066 7.58571 8.37481 8.26931L12.0857 18.4646C12.1736 18.7185 12.0662 18.9041 11.91 18.9627C11.7537 19.0212 11.5877 18.9724 11.3924 18.7576L8.88262 16.0623C8.51152 15.6716 8.1209 15.574 7.71074 15.7302C7.08574 15.9548 6.8416 16.531 7.02715 17.0584C7.10527 17.2634 7.2127 17.4197 7.31035 17.5466L10.4158 21.4431C13.033 24.7244 16.0603 25.3494 18.99 24.2849Z" fill="currentColor"/>
</svg>
