<svg  viewBox="0 0 28 28"  xmlns="http://www.w3.org/2000/svg">
<path d="M4.38 17.7502C4.38 20.6409 6.18664 23.0627 8.60852 23.0627H10.3273C8.56945 21.7834 7.8468 19.8498 7.8468 17.6526C7.85656 15.2112 8.80383 13.4631 9.64367 12.4085H8.24719C6.06945 12.4085 4.38 14.7522 4.38 17.7502ZM9.19445 17.6721C9.19445 21.2366 11.9777 23.9905 16.5187 23.9905H17.8468C19.1066 23.9905 20.0441 23.9026 20.5714 23.7561C21.3331 23.5705 22.0655 23.1018 22.0655 22.1838C22.0655 21.803 21.9679 21.5295 21.8507 21.3245C21.7726 21.1975 21.7921 21.0998 21.9093 21.051C22.5148 20.7971 23.0128 20.2307 23.0128 19.4592C23.0128 19.0198 22.8859 18.6291 22.671 18.3655C22.5636 18.219 22.5734 18.0823 22.7589 17.9846C23.1886 17.7307 23.5011 17.1838 23.5011 16.5491C23.5011 16.0901 23.3546 15.6116 23.1007 15.3772C22.9445 15.2405 22.9738 15.1428 23.13 14.9963C23.4327 14.7424 23.628 14.303 23.628 13.7463C23.628 12.8088 22.8956 12.0373 21.9288 12.0373H18.4913C17.6222 12.0373 17.046 11.5881 17.046 10.8655C17.046 9.56665 18.6769 7.16431 18.6769 5.44556C18.6769 4.53735 18.0909 4.01001 17.3292 4.01001C16.6261 4.01001 16.2843 4.48853 15.9132 5.22095C14.4581 8.04321 12.5245 10.3284 11.0499 12.2815C9.79992 13.9416 9.19445 15.3772 9.19445 17.6721Z" fill="currentColor"/>
</svg>
