<svg  viewBox="0 0 28 28"  xmlns="http://www.w3.org/2000/svg">
<path d="M23.6183 10.2509C23.6183 7.36029 21.8019 4.93842 19.3898 4.93842H17.671C19.4288 6.21771 20.2101 8.15131 20.171 10.3486C20.1417 12.79 19.1945 14.538 18.3448 15.5927H19.7511C21.9288 15.5927 23.6183 13.249 23.6183 10.2509ZM18.8624 10.3193C18.921 6.75482 16.0304 4.05951 11.4894 4.02045L10.171 4.01068C8.90148 4.00092 7.96398 4.09857 7.43664 4.24506C6.67492 4.4306 5.9425 4.88959 5.9425 5.81732C5.9425 6.18842 6.04016 6.47162 6.15734 6.6767C6.23547 6.79388 6.2257 6.90131 6.09875 6.95013C5.50305 7.19428 4.99524 7.77045 4.99524 8.53217C4.99524 8.98138 5.12219 9.36224 5.3468 9.63568C5.45422 9.78217 5.43469 9.90912 5.25891 10.0165C4.81946 10.2704 4.50696 10.8173 4.50696 11.4521C4.50696 11.9111 4.65344 12.3896 4.90735 12.624C5.07336 12.7607 5.04407 12.8583 4.87805 13.0048C4.57532 13.2587 4.38 13.6982 4.38 14.2548C4.38 15.1923 5.11243 15.9638 6.07922 15.9638H9.51673C10.3859 15.9638 10.962 16.413 10.962 17.1357C10.962 18.4345 9.34094 20.8271 9.34094 22.5458C9.34094 23.4638 9.91711 23.9911 10.6886 23.9911C11.382 23.9911 11.7238 23.5126 12.0948 22.7802C13.5499 19.9579 15.4835 17.6728 16.9581 15.7099C18.2081 14.0497 18.8234 12.624 18.8624 10.3193Z" fill="currentColor"/>
</svg>
