<svg viewBox="0 0 28 28" xmlns="http://www.w3.org/2000/svg">
<path d="M4.30499 10.9334C4.30499 15.0936 7.79132 19.1854 13.2991 22.701C13.5042 22.828 13.7972 22.9647 14.0023 22.9647C14.2073 22.9647 14.5003 22.828 14.7152 22.701C20.2132 19.1854 23.6995 15.0936 23.6995 10.9334C23.6995 7.47638 21.3265 5.03497 18.1624 5.03497C16.3558 5.03497 14.8909 5.89435 14.0023 7.21271C13.1331 5.90411 11.6487 5.03497 9.8421 5.03497C6.67804 5.03497 4.30499 7.47638 4.30499 10.9334ZM5.87726 10.9334C5.87726 8.33575 7.55694 6.60724 9.82257 6.60724C11.6585 6.60724 12.7132 7.74982 13.3382 8.72638C13.6019 9.117 13.7679 9.22443 14.0023 9.22443C14.2366 9.22443 14.3831 9.10724 14.6663 8.72638C15.3402 7.76935 16.3558 6.60724 18.182 6.60724C20.4476 6.60724 22.1273 8.33575 22.1273 10.9334C22.1273 14.5663 18.2894 18.4823 14.2073 21.1971C14.1097 21.2655 14.0413 21.3143 14.0023 21.3143C13.9632 21.3143 13.8948 21.2655 13.8069 21.1971C9.71515 18.4823 5.87726 14.5663 5.87726 10.9334Z" fill="currentColor"/>
</svg>
