<svg  viewBox="0 0 28 28"  xmlns="http://www.w3.org/2000/svg">
<path fill-rule="evenodd" clip-rule="evenodd" d="M13.9912 4.03998C19.4404 4.03998 23.9619 8.5517 23.9619 14.0009C23.9619 19.4404 19.4502 23.9619 14.001 23.9619C8.56152 23.9619 4.04004 19.4404 4.04004 14.0009C4.04004 8.5517 8.55176 4.03998 13.9912 4.03998ZM12.4092 12.1943C11.999 12.1943 11.6768 12.5165 11.6768 12.9072C11.6768 13.3271 11.999 13.6298 12.4092 13.6298H13.4834V18.2197H12.2432C11.8233 18.2197 11.501 18.542 11.501 18.9326C11.501 19.3525 11.8232 19.6552 12.2432 19.6552H16.335C16.7548 19.6552 17.0771 19.3524 17.0771 18.9326C17.0771 18.542 16.7548 18.2197 16.335 18.2197H15.0947V13.1122C15.0947 12.5654 14.8212 12.1943 14.3037 12.1943H12.4092ZM13.9131 7.87787C13.1807 7.87787 12.5947 8.46381 12.5947 9.20599C12.5947 9.94817 13.1807 10.5341 13.9131 10.5341C14.6455 10.5341 15.2217 9.94817 15.2217 9.20599C15.2217 8.46381 14.6455 7.87787 13.9131 7.87787Z" fill="currentColor" />
</svg>
