<svg  viewBox="0 0 28 28"  xmlns="http://www.w3.org/2000/svg">
<path d="M7 9.2002C7 8.53745 7.53745 8 8.2002 8C8.86294 8 9.40039 8.53745 9.40039 9.2002C9.40039 10.6201 9.40067 11.6132 9.46387 12.3867C9.52593 13.1461 9.64255 13.5884 9.81445 13.9258C10.1787 14.6405 10.7599 15.2217 11.4746 15.5859C11.812 15.7578 12.2543 15.8745 13.0137 15.9365C13.7872 15.9997 14.7803 16 16.2002 16H20.2002C20.8629 16 21.4004 16.5375 21.4004 17.2002C21.4004 17.8214 20.9282 18.3319 20.3232 18.3936L20.2002 18.4004H16.2002C14.8199 18.4004 13.7123 18.4012 12.8184 18.3281C11.9106 18.2539 11.1178 18.0975 10.3857 17.7246C9.21914 17.1302 8.2702 16.1813 7.67578 15.0146C7.30286 14.2826 7.14644 13.4898 7.07227 12.582C6.99923 11.6881 7 10.5805 7 9.2002Z" fill="currentColor"/>
</svg>
