<svg  viewBox="0 0 28 28"  xmlns="http://www.w3.org/2000/svg">
<path d="M3.06335 13.3075C2.67273 13.3075 2.37 13.62 2.37 14.0009C2.37 14.3817 2.67273 14.6845 3.06335 14.6845H24.9481C25.3388 14.6845 25.6317 14.3817 25.6317 14.0009C25.6317 13.62 25.3388 13.3075 24.9481 13.3075H3.06335ZM14.6845 3.05359C14.6845 2.66296 14.3817 2.37 14.0009 2.37C13.62 2.37 13.3075 2.66296 13.3075 3.05359V24.9384C13.3075 25.3192 13.62 25.6317 14.0009 25.6317C14.3817 25.6317 14.6845 25.3192 14.6845 24.9384V3.05359ZM18.4345 5.12391C18.5712 4.76258 18.3954 4.36219 18.0634 4.22547C17.6923 4.08875 17.2919 4.25477 17.1454 4.5868L9.56727 22.8778C9.43055 23.2391 9.60632 23.6395 9.93835 23.7762C10.3094 23.913 10.7001 23.747 10.8563 23.4052L18.4345 5.12391ZM23.6102 5.37781C23.8544 5.11414 23.8544 4.68445 23.5907 4.41102C23.3173 4.14734 22.8876 4.15711 22.6239 4.41102L4.39148 22.6141C4.13758 22.8876 4.14734 23.3173 4.41102 23.5907C4.68445 23.8544 5.11414 23.8446 5.37781 23.5907L23.6102 5.37781ZM23.4149 10.8466C23.747 10.7001 23.913 10.3094 23.7665 9.95789C23.6395 9.60633 23.2391 9.4403 22.8778 9.57702L4.5868 17.1454C4.25477 17.2919 4.08875 17.6825 4.23523 18.0438C4.36219 18.3954 4.76258 18.5516 5.12391 18.4149L23.4149 10.8466ZM22.8778 18.4345C23.2391 18.5712 23.6298 18.3954 23.7762 18.0438C23.913 17.6825 23.7567 17.3016 23.3954 17.1552L5.12391 9.56727C4.76258 9.43055 4.37195 9.60633 4.22547 9.95789C4.08875 10.3094 4.245 10.6903 4.60633 10.8368L22.8778 18.4345ZM22.6239 23.6005C22.8876 23.8544 23.3173 23.8544 23.5907 23.5907C23.8544 23.3173 23.8544 22.9071 23.5907 22.6337L5.37781 4.39148C5.11414 4.13758 4.68445 4.14734 4.41102 4.41102C4.14734 4.68445 4.14734 5.09461 4.41102 5.36805L22.6239 23.6005ZM17.1454 23.4149C17.2919 23.7567 17.702 23.913 18.0438 23.7665C18.3954 23.6395 18.5516 23.2294 18.4149 22.8876L10.8563 4.5868C10.7001 4.245 10.2997 4.08875 9.95789 4.23523C9.60633 4.36219 9.44031 4.75281 9.5868 5.11414L17.1454 23.4149Z" fill="currentColor"/>
</svg>
