<svg  viewBox="0 0 28 28"  xmlns="http://www.w3.org/2000/svg">
<path d="M7.46997 8.65563C7.46997 12.4056 9.71606 13.3334 10.3411 19.847C10.3801 20.1986 10.5754 20.4232 10.9465 20.4232H17.0598C17.4407 20.4232 17.636 20.1986 17.6751 19.847C18.3001 13.3334 20.5364 12.4056 20.5364 8.65563C20.5364 5.28649 17.6555 2.64001 14.0032 2.64001C10.3508 2.64001 7.46997 5.28649 7.46997 8.65563ZM8.94458 8.65563C8.94458 6.01892 11.259 4.11462 14.0032 4.11462C16.7473 4.11462 19.0618 6.01892 19.0618 8.65563C19.0618 11.4584 17.2063 12.1224 16.3274 18.9486H11.6887C10.8001 12.1224 8.94458 11.4584 8.94458 8.65563ZM10.9172 22.5326H17.0989C17.4211 22.5326 17.6653 22.2787 17.6653 21.9564C17.6653 21.6439 17.4211 21.39 17.0989 21.39H10.9172C10.595 21.39 10.3411 21.6439 10.3411 21.9564C10.3411 22.2787 10.595 22.5326 10.9172 22.5326ZM14.0032 25.3646C15.5169 25.3646 16.7766 24.6224 16.8743 23.4994H11.1419C11.2102 24.6224 12.4797 25.3646 14.0032 25.3646Z" fill="currentColor"/>
</svg>
