<svg  viewBox="0 0 28 28"  xmlns="http://www.w3.org/2000/svg">
<path d="M5.10138 18.9016L9.3299 14.5949C9.41779 14.507 9.50568 14.4582 9.59357 14.4582C9.68146 14.4582 9.76935 14.507 9.85724 14.5949L13.451 18.2766C13.8709 18.716 14.3104 18.9211 14.7694 18.9211C15.2381 18.9211 15.6581 18.716 16.0975 18.2766L20.0819 14.2727L21.6834 15.884C22.035 16.2356 22.494 16.0207 22.6209 15.5227L24.0663 9.8C24.1834 9.35078 23.7928 8.97969 23.3534 9.09687L17.6405 10.5324C17.1424 10.6691 16.9276 11.1184 17.2791 11.4699L18.8905 13.0813L15.0428 16.9777C14.9549 17.0656 14.8573 17.1145 14.7694 17.1145C14.6913 17.1145 14.5936 17.0656 14.5057 16.9777L10.9119 13.2961C10.4822 12.8566 10.0525 12.6516 9.59357 12.6516C9.13459 12.6516 8.72443 12.8469 8.27521 13.2961L3.90997 17.7199L5.10138 18.9016Z" fill="currentColor"/>
</svg>
