<svg  viewBox="0 0 28 28"  xmlns="http://www.w3.org/2000/svg">
<path d="M5.10138 9.09955L3.90997 10.2812L8.27521 14.705C8.72443 15.1542 9.13459 15.3495 9.59357 15.3495C10.0525 15.3495 10.4822 15.1445 10.9119 14.705L14.5057 11.0234C14.5936 10.9355 14.6913 10.8867 14.7694 10.8867C14.8573 10.8867 14.9549 10.9355 15.0428 11.0234L18.8905 14.9199L17.2791 16.5312C16.9276 16.8827 17.1424 17.3319 17.6405 17.4589L23.3534 18.9042C23.7928 19.0214 24.1834 18.6503 24.0663 18.2011L22.6209 12.4785C22.494 11.9804 22.035 11.7656 21.6834 12.1171L20.0819 13.7285L16.0975 9.72455C15.6581 9.2851 15.2381 9.08002 14.7694 9.08002C14.3104 9.08002 13.8709 9.2851 13.451 9.72455L9.85724 13.4062C9.76935 13.4941 9.68146 13.5429 9.59357 13.5429C9.50568 13.5429 9.41779 13.4941 9.3299 13.4062L5.10138 9.09955Z" fill="currentColor"/>
</svg>
