<svg  viewBox="0 0 28 28"  xmlns="http://www.w3.org/2000/svg">
<path d="M7.5968 11.1097C8.00673 11.11 8.33899 11.4322 8.33899 11.8422V13.766C8.33899 17.096 10.5071 19.303 13.8468 19.3031C14.8518 19.303 15.7508 19.1011 16.5177 18.7308L17.5597 19.7699C16.6983 20.2515 15.6971 20.5576 14.589 20.6508V22.9261H18.212C18.6219 22.9264 18.9444 23.2583 18.9445 23.6683C18.9445 24.0783 18.6219 24.4005 18.212 24.4008H9.48156C9.07153 24.4006 8.74914 24.0784 8.74914 23.6683C8.74916 23.2582 9.07155 22.9263 9.48156 22.9261H13.1144V20.6508C9.38406 20.3382 6.86341 17.6526 6.8634 13.8246V11.8422C6.8634 11.4321 7.18676 11.1099 7.5968 11.1097Z" fill="currentColor"/>
<path d="M5.90735 5.45544C6.20033 5.16261 6.68864 5.17229 6.98156 5.45544L22.089 20.5531C22.3818 20.8461 22.372 21.3148 22.089 21.6176C21.796 21.9104 21.3174 21.9104 21.0245 21.6176L5.90735 6.5199C5.62415 6.2367 5.62415 5.74841 5.90735 5.45544Z" fill="currentColor"/>
<path d="M14.8458 17.0619C14.5368 17.1535 14.2026 17.2034 13.8468 17.2035C11.9036 17.2034 10.5851 15.7482 10.5851 13.6683V12.809L14.8458 17.0619Z" fill="currentColor"/>
<path d="M20.0958 11.1097C20.506 11.1097 20.839 11.432 20.839 11.8422V13.8246C20.839 15.0075 20.596 16.0808 20.1525 17.0092L19.0245 15.8832C19.2452 15.2463 19.3644 14.5366 19.3644 13.766V11.8422C19.3644 11.4322 19.6861 11.1101 20.0958 11.1097Z" fill="currentColor"/>
<path d="M13.8468 3.59998C15.7996 3.60021 17.1075 5.04545 17.1075 7.13513V13.6683C17.1075 13.7665 17.1035 13.8631 17.0978 13.9584L10.5851 7.45447V7.13513C10.5851 5.04537 11.9036 3.6001 13.8468 3.59998Z" fill="currentColor"/>
</svg>
