<svg  viewBox="0 0 28 28"  xmlns="http://www.w3.org/2000/svg">
<path d="M7.01501 13.8246C7.01501 17.6527 9.54431 20.3383 13.265 20.6508V22.9262H9.64196C9.23181 22.9262 8.89978 23.2582 8.89978 23.6684C8.89978 24.0785 9.23181 24.4008 9.64196 24.4008H18.3627C18.7728 24.4008 19.1048 24.0785 19.1048 23.6684C19.1048 23.2582 18.7728 22.9262 18.3627 22.9262H14.7396V20.6508C18.4701 20.3383 20.9896 17.6527 20.9896 13.8246V11.8422C20.9896 11.432 20.6673 11.1097 20.2572 11.1097C19.847 11.1097 19.515 11.432 19.515 11.8422V13.766C19.515 17.0961 17.347 19.3031 14.0072 19.3031C10.6576 19.3031 8.48962 17.0961 8.48962 13.766V11.8422C8.48962 11.432 8.16735 11.1097 7.74744 11.1097C7.33728 11.1097 7.01501 11.432 7.01501 11.8422V13.8246ZM14.0072 17.2035C15.9506 17.2035 17.2591 15.7484 17.2591 13.6684V7.13514C17.2591 5.04529 15.9506 3.59998 14.0072 3.59998C12.0541 3.59998 10.7455 5.04529 10.7455 7.13514V13.6684C10.7455 15.7484 12.0541 17.2035 14.0072 17.2035Z" fill="currentColor"/>
</svg>
