<svg  viewBox="0 0 28 28"  xmlns="http://www.w3.org/2000/svg">
<path d="M20.0112 15.2174C20.1968 15.2174 20.3238 15.0905 20.3433 14.8952C20.6655 12.2877 20.7925 12.2194 23.439 11.7897C23.6441 11.7604 23.771 11.653 23.771 11.4674C23.771 11.2819 23.6441 11.1647 23.478 11.1354C20.812 10.6276 20.6655 10.6373 20.3433 8.02991C20.3238 7.8346 20.1968 7.70765 20.0112 7.70765C19.8355 7.70765 19.7085 7.8346 19.6792 8.02015C19.3472 10.6666 19.2495 10.7545 16.5445 11.1354C16.3784 11.1549 16.2515 11.2819 16.2515 11.4674C16.2515 11.6432 16.3784 11.7604 16.5445 11.7897C19.2495 12.3073 19.3374 12.3073 19.6792 14.9147C19.7085 15.0905 19.8355 15.2174 20.0112 15.2174ZM15.3433 8.60608C15.4605 8.60608 15.5191 8.53772 15.5386 8.4303C15.8413 6.79944 15.8316 6.76038 17.5308 6.43811C17.6382 6.41858 17.7163 6.35022 17.7163 6.23304C17.7163 6.11585 17.6382 6.04749 17.5308 6.02796C15.8316 5.68616 15.8902 5.6471 15.5386 4.03577C15.5191 3.92834 15.4605 3.85999 15.3433 3.85999C15.2261 3.85999 15.1577 3.92834 15.1382 4.03577C14.7964 5.6471 14.855 5.68616 13.1558 6.02796C13.0386 6.04749 12.9702 6.11585 12.9702 6.23304C12.9702 6.35022 13.0386 6.41858 13.1558 6.43811C14.855 6.77991 14.8355 6.79944 15.1382 8.4303C15.1577 8.53772 15.2261 8.60608 15.3433 8.60608Z" fill="currentColor"/>
<path d="M12.6675 24.1432C16.1929 24.1432 19.064 22.3854 20.3628 19.3385C20.5093 18.9967 20.4898 18.694 20.314 18.5182C20.1773 18.3717 19.9038 18.3522 19.6109 18.4596C18.8003 18.7819 17.8823 18.9381 16.8179 18.9381C12.394 18.9381 9.54248 16.1647 9.54248 11.8287C9.54248 10.7252 9.74756 9.48497 10.0796 8.81114C10.2456 8.46935 10.2456 8.16661 10.0894 7.99083C9.92334 7.79552 9.6206 7.76622 9.23975 7.9127C6.2417 9.10411 4.22998 12.2486 4.22998 15.8229C4.22998 20.569 7.73584 24.1432 12.6675 24.1432Z" fill="currentColor"/>
</svg>
