<svg  viewBox="0 0 28 28"  xmlns="http://www.w3.org/2000/svg">
<path d="M19.4724 17.3959C14.1892 17.3959 10.8103 14.0854 10.8103 8.79242C10.8103 7.69867 11.074 6.13617 11.4255 5.32562C11.5134 5.10101 11.533 4.96429 11.533 4.86664C11.533 4.60297 11.3377 4.31 10.9568 4.31C10.8494 4.31 10.615 4.33929 10.4002 4.41742C6.78687 5.86273 4.36499 9.74945 4.36499 13.8412C4.36499 19.5834 8.73999 23.685 14.4627 23.685C18.6716 23.685 22.3142 21.1362 23.5252 17.9526C23.613 17.728 23.6326 17.4936 23.6326 17.4057C23.6326 17.0444 23.3298 16.8002 23.0564 16.8002C22.9295 16.8002 22.822 16.8295 22.6365 16.8881C21.8845 17.1323 20.6736 17.3959 19.4724 17.3959Z" fill="currentColor"/>
</svg>
