<svg  viewBox="0 0 28 28"  xmlns="http://www.w3.org/2000/svg">
<path d="M20.6109 14.4506L13.4332 21.6283C11.5679 23.5033 9.05817 23.3178 7.45661 21.6967C5.84528 20.0951 5.65974 17.6049 7.52497 15.7299L17.3199 5.94468C18.4429 4.82163 20.0933 4.66538 21.1675 5.72984C22.232 6.81382 22.0758 8.45445 20.9625 9.57749L11.3922 19.1479C10.9136 19.6459 10.3277 19.4994 9.99567 19.1674C9.66364 18.8256 9.52692 18.2592 10.0054 17.7611L16.6949 11.0912C16.9879 10.7884 17.0074 10.3587 16.7242 10.0755C16.441 9.8021 16.0113 9.82163 15.7183 10.1146L9.00935 16.8236C8.01325 17.8197 8.05232 19.3432 8.93122 20.2221C9.88825 21.1791 11.3336 21.1596 12.3394 20.1537L21.9488 10.5443C23.775 8.71812 23.6968 6.31577 22.105 4.72398C20.5523 3.17125 18.1109 3.05406 16.2847 4.88023L6.44099 14.7338C4.02888 17.1459 4.21442 20.5932 6.39216 22.7709C8.56989 24.9389 12.0172 25.1244 14.4293 22.7221L21.6558 15.4955C21.939 15.2123 21.939 14.6947 21.6461 14.4311C21.3629 14.1283 20.9039 14.1674 20.6109 14.4506Z" fill="currentColor"/>
</svg>
