<svg  viewBox="0 0 28 28"  xmlns="http://www.w3.org/2000/svg">
<path fill-rule="evenodd" clip-rule="evenodd" d="M13.9912 4.03998C19.4404 4.03998 23.9619 8.5517 23.9619 14.0009C23.9619 19.4404 19.4502 23.9619 14.0009 23.9619C8.56148 23.9619 4.04 19.4404 4.04 14.0009C4.04 8.5517 8.55172 4.03998 13.9912 4.03998ZM11.1591 10.0654C10.6611 10.0654 10.4365 10.3388 10.4365 10.7197V17.2626C10.4365 17.6532 10.6611 17.9267 11.1591 17.9267H12.1455C12.6533 17.9267 12.8779 17.6532 12.8779 17.2626V10.7197C12.8779 10.3388 12.6533 10.0654 12.1455 10.0654H11.1591ZM15.8759 10.0654C15.3681 10.0654 15.1435 10.3388 15.1435 10.7197V17.2626C15.1435 17.6532 15.3681 17.9267 15.8759 17.9267H16.8623C17.3505 17.9267 17.5752 17.6532 17.5752 17.2626V10.7197C17.5752 10.3388 17.3505 10.0654 16.8623 10.0654H15.8759Z" fill="currentColor"/>
</svg>
