<svg  viewBox="0 0 28 28"  xmlns="http://www.w3.org/2000/svg">
<path d="M9.34383 21.9532H11.5704C12.42 21.9532 12.8692 21.504 12.8692 20.6446V7.34381C12.8692 6.45514 12.42 6.04498 11.5704 6.04498H9.34383C8.49422 6.04498 8.045 6.4942 8.045 7.34381V20.6446C8.045 21.504 8.49422 21.9532 9.34383 21.9532ZM16.4434 21.9532H18.6602C19.5196 21.9532 19.9591 21.504 19.9591 20.6446V7.34381C19.9591 6.45514 19.5196 6.04498 18.6602 6.04498H16.4434C15.5841 6.04498 15.1348 6.4942 15.1348 7.34381V20.6446C15.1348 21.504 15.5841 21.9532 16.4434 21.9532Z" fill="currentColor"/>
</svg>
