<svg  viewBox="0 0 28 28"  xmlns="http://www.w3.org/2000/svg">
<path d="M8.63182 23.2223C9.0908 23.2223 9.31541 22.9781 9.39354 22.5777L11.3271 12.734L10.3506 13.525H17.6357L16.6592 12.734L18.5928 22.5777C18.6709 22.9781 18.8955 23.2223 19.3545 23.2223C20.0088 23.2223 20.2334 22.773 20.126 22.2457L18.2998 12.9489C18.1826 12.3336 17.665 11.8844 17.0693 11.8844H10.9267C10.331 11.8844 9.81346 12.3336 9.69627 12.9489L7.8701 22.2457C7.76268 22.773 7.99705 23.2223 8.63182 23.2223ZM10.7119 12.6754H13.998H17.2842L14.8525 5.41956C14.706 5.0094 14.4326 4.77502 14.0127 4.77502C13.5732 4.77502 13.2705 5.0094 13.1338 5.41956L10.7119 12.6754Z" fill="currentColor"/>
</svg>
