<svg  viewBox="0 0 28 28"  xmlns="http://www.w3.org/2000/svg">
<path fill-rule="evenodd" clip-rule="evenodd" d="M13.9911 4.03998C19.4404 4.03998 23.9619 8.5517 23.9619 14.0009C23.9619 19.4404 19.4502 23.9619 14.0009 23.9619C8.56146 23.9619 4.03998 19.4404 4.03998 14.0009C4.03998 8.5517 8.5517 4.03998 13.9911 4.03998ZM13.9911 9.22552C13.4931 9.22553 13.1513 9.58686 13.1513 10.0947V13.1513H10.0947C9.58686 13.1513 9.23529 13.5029 9.23529 14.0107C9.23529 14.5088 9.58686 14.8408 10.0947 14.8408H13.1513V17.9072C13.1513 18.4052 13.4931 18.7665 13.9911 18.7665C14.499 18.7665 14.8505 18.415 14.8505 17.9072V14.8408H17.9169C18.4149 14.8408 18.7763 14.5088 18.7763 14.0107C18.7763 13.5029 18.4149 13.1513 17.9169 13.1513H14.8505V10.0947C14.8505 9.58686 14.499 9.22552 13.9911 9.22552Z" fill="currentColor"/>
</svg>
