<svg  viewBox="0 0 28 28"  xmlns="http://www.w3.org/2000/svg">
<path d="M5.68735 24.4675H16.0584C18.0799 24.4675 19.0858 23.4519 19.0858 21.4109V16.6649H17.5135V21.3817C17.5135 22.3582 16.9959 22.8952 15.9803 22.8952H5.77524C4.75961 22.8952 4.23227 22.3582 4.23227 21.3817V6.62573C4.23227 5.64917 4.75961 5.10229 5.77524 5.10229H15.9803C16.9959 5.10229 17.5135 5.64917 17.5135 6.62573V11.3328H19.0858V6.59644C19.0858 4.56519 18.0799 3.53003 16.0584 3.53003H5.68735C3.67563 3.53003 2.66 4.56519 2.66 6.59644V21.4109C2.66 23.4519 3.67563 24.4675 5.68735 24.4675Z" fill="currentColor"/>
<path d="M21.7323 14.7702H11.703C11.2928 14.7702 10.9413 14.4187 10.9413 13.9988C10.9413 13.5788 11.2928 13.2175 11.703 13.2175H21.7323L23.1971 13.2859L22.5038 12.6218L20.9217 11.1375C20.7655 11.0007 20.6873 10.7957 20.6873 10.6003C20.6873 10.1902 20.9803 9.89722 21.3709 9.89722C21.5858 9.89722 21.742 9.98511 21.8885 10.1316L25.0721 13.4324C25.2674 13.6277 25.3358 13.7937 25.3358 13.9988C25.3358 14.1942 25.2674 14.3698 25.0721 14.5652L21.8885 17.8659C21.742 18.0125 21.5858 18.0905 21.3709 18.0905C20.9803 18.0905 20.6873 17.7878 20.6873 17.3777C20.6873 17.1921 20.7655 16.987 20.9217 16.8503L22.5038 15.3757L23.1873 14.7116L21.7323 14.7702Z" fill="currentColor"/>
</svg>
