<svg  viewBox="0 0 28 28"  xmlns="http://www.w3.org/2000/svg">
<path d="M13.4514 7.61585C13.5783 7.61585 13.6467 7.53772 13.6662 7.42054C13.9592 5.83851 13.9299 5.76038 15.6291 5.45765C15.7462 5.42835 15.8244 5.35999 15.8244 5.23304C15.8244 5.11585 15.7462 5.03772 15.6291 5.01819C13.9299 4.71546 13.9592 4.63733 13.6662 3.0553C13.6467 2.93811 13.5783 2.85999 13.4514 2.85999C13.3244 2.85999 13.256 2.93811 13.2365 3.0553C12.9435 4.63733 12.9728 4.71546 11.2736 5.01819C11.1467 5.03772 11.0783 5.11585 11.0783 5.23304C11.0783 5.35999 11.1467 5.42835 11.2736 5.45765C12.9728 5.76038 12.9435 5.83851 13.2365 7.42054C13.256 7.53772 13.3244 7.61585 13.4514 7.61585Z" fill="currentColor"/>
<path d="M8.7248 14.3346C8.91034 14.3346 9.0373 14.2077 9.05683 14.0319C9.40839 11.4244 9.49628 11.4244 12.1916 10.9069C12.3576 10.8776 12.4846 10.7604 12.4846 10.5748C12.4846 10.399 12.3576 10.2721 12.1916 10.2526C9.49628 9.87171 9.39862 9.78382 9.05683 7.13733C9.0373 6.95179 8.91034 6.82483 8.7248 6.82483C8.54901 6.82483 8.42206 6.95179 8.39276 7.1471C8.08026 9.75452 7.93378 9.74476 5.258 10.2526C5.09198 10.2819 4.96503 10.399 4.96503 10.5748C4.96503 10.7701 5.09198 10.8776 5.29706 10.9069C7.95331 11.3365 8.08026 11.4049 8.39276 14.0123C8.42206 14.2077 8.54901 14.3346 8.7248 14.3346Z" fill="currentColor"/>
<path d="M15.3459 25.1354C15.5998 25.1354 15.7853 24.9498 15.8341 24.6862C16.5275 19.3444 17.2795 18.5241 22.5724 17.9381C22.8459 17.9088 23.0314 17.7135 23.0314 17.4498C23.0314 17.1959 22.8459 17.0006 22.5724 16.9713C17.2795 16.3854 16.5275 15.5651 15.8341 10.2135C15.7853 9.94983 15.5998 9.77405 15.3459 9.77405C15.092 9.77405 14.9064 9.94983 14.8674 10.2135C14.174 15.5651 13.4123 16.3854 8.12909 16.9713C7.84589 17.0006 7.66034 17.1959 7.66034 17.4498C7.66034 17.7135 7.84589 17.9088 8.12909 17.9381C13.4025 18.6315 14.1349 19.3444 14.8674 24.6862C14.9064 24.9498 15.092 25.1354 15.3459 25.1354Z" fill="currentColor"/>
</svg>
