<svg  viewBox="0 0 28 28"  xmlns="http://www.w3.org/2000/svg">
<path d="M16.5361 3.77002C18.5673 3.77002 19.6025 4.78564 19.6025 6.79736V6.96338H11.4677C8.69428 6.96338 7.07318 8.55518 7.07318 11.3188V19.7075H6.73138C4.69037 19.7075 3.66498 18.6919 3.66498 16.6802V6.79736C3.66498 4.78564 4.69037 3.77002 6.73138 3.77002H16.5361Z" fill="currentColor"/>
<path d="M11.4677 24.229H21.2724C23.3037 24.229 24.3388 23.2134 24.3388 21.2017V11.3188C24.3388 9.30713 23.3037 8.2915 21.2724 8.2915H11.4677C9.4267 8.2915 8.40131 9.29736 8.40131 11.3188V21.2017C8.40131 23.2134 9.4267 24.229 11.4677 24.229Z" fill="currentColor"/>
</svg>
