<svg  viewBox="0 0 28 28"  xmlns="http://www.w3.org/2000/svg">
<path d="M7.0732 19.7076H6.73141C4.69039 19.7076 3.665 18.6919 3.665 16.6802V6.79736C3.665 4.78564 4.69039 3.77002 6.73141 3.77002H16.5361C18.5673 3.77002 19.6025 4.78564 19.6025 6.79736V6.96338H11.4677C8.6943 6.96338 7.0732 8.55517 7.0732 11.3188V19.7076Z" fill="currentColor"/>
<path d="M11.4677 24.229H21.2724C23.3037 24.229 24.3388 23.2134 24.3388 21.2017V11.3188C24.3388 9.30713 23.3037 8.2915 21.2724 8.2915H11.4677C9.42672 8.2915 8.40133 9.29736 8.40133 11.3188V21.2017C8.40133 23.2134 9.42672 24.229 11.4677 24.229Z" fill="currentColor"/>
</svg>
