<svg viewBox="0 0 28 28"  xmlns="http://www.w3.org/2000/svg">
<path d="M17.1245 2.65503C17.9602 2.65504 18.4601 3.10647 18.4976 3.90503H9.50146C9.5389 3.10647 10.0389 2.65503 10.8745 2.65503H17.1245Z" fill="currentColor"/>
<path d="M18.7261 5.23315C19.7633 5.23315 20.3879 5.75651 20.4946 6.69312C20.18 6.64467 19.8473 6.61987 19.4976 6.61987H8.50146C8.15135 6.61987 7.81838 6.64479 7.50342 6.69312C7.61163 5.75642 8.24544 5.23315 9.28271 5.23315H18.7261Z" fill="currentColor"/>
<path d="M8.50146 25.321H19.4976C21.5386 25.321 22.564 24.3054 22.564 22.2937V11.2194C22.564 9.20776 21.5386 8.19214 19.4976 8.19214H8.50146C6.46045 8.19214 5.43506 9.198 5.43506 11.2194V22.2937C5.43506 24.3054 6.46045 25.321 8.50146 25.321Z" fill="currentColor"/>
</svg>
