<svg  viewBox="0 0 28 28"  xmlns="http://www.w3.org/2000/svg">
<path d="M8.40634 19.7075H6.73642C4.68564 19.7075 3.67001 18.6919 3.67001 16.6802V6.79736C3.67001 4.78564 4.68564 3.77002 6.73642 3.77002H16.5411C18.5723 3.77002 19.5977 4.78564 19.5977 6.79736V8.2915H18.0255V6.88525C18.0255 5.86963 17.4786 5.34229 16.5118 5.34229H6.75595C5.77939 5.34229 5.24228 5.86963 5.24228 6.88525V16.5923C5.24228 17.6079 5.77939 18.1353 6.75595 18.1353H8.40634V19.7075Z" fill="currentColor"/>
<path d="M11.4727 24.229H21.2774C23.3087 24.229 24.3341 23.2134 24.3341 21.2017V11.3188C24.3341 9.30712 23.3087 8.2915 21.2774 8.2915H11.4727C9.42196 8.2915 8.40634 9.29736 8.40634 11.3188V21.2017C8.40634 23.2134 9.42196 24.229 11.4727 24.229ZM11.4923 22.6567C10.5255 22.6567 9.9786 22.1294 9.9786 21.1138V11.4067C9.9786 10.3911 10.5255 9.86376 11.4923 9.86376H21.2481C22.2149 9.86376 22.7618 10.3911 22.7618 11.4067V21.1138C22.7618 22.1294 22.2149 22.6567 21.2481 22.6567H11.4923Z" fill="currentColor"/>
</svg>
