<svg  viewBox="0 0 28 28"  xmlns="http://www.w3.org/2000/svg">
<path d="M16.6839 23H21.1326C22.3743 23 23 22.3841 23 21.0935V16.7133C23 15.4325 22.3743 14.8067 21.1326 14.8067H16.6839C15.4324 14.8067 14.8066 15.4325 14.8066 16.7133V21.0935C14.8066 22.3841 15.4324 23 16.6839 23Z" fill="currentColor"/>
<path d="M6.86746 23H11.3259C12.5676 23 13.1934 22.3841 13.1934 21.0935V16.7133C13.1934 15.4325 12.5676 14.8067 11.3259 14.8067H6.86746C5.62575 14.8067 5 15.4325 5 16.7133V21.0935C5 22.3841 5.62575 23 6.86746 23Z" fill="currentColor"/>
<path d="M16.6839 13.1934H21.1326C22.3743 13.1934 23 12.5676 23 11.277V6.90658C23 5.61597 22.3743 5 21.1326 5H16.6839C15.4324 5 14.8066 5.61597 14.8066 6.90658V11.277C14.8066 12.5676 15.4324 13.1934 16.6839 13.1934Z" fill="currentColor"/>
<path d="M6.86746 13.1934H11.3259C12.5676 13.1934 13.1934 12.5676 13.1934 11.277V6.90658C13.1934 5.61597 12.5676 5 11.3259 5H6.86746C5.62575 5 5 5.61597 5 6.90658V11.277C5 12.5676 5.62575 13.1934 6.86746 13.1934Z" fill="currentColor"/>
</svg>
