<svg viewBox="0 0 28 28"  xmlns="http://www.w3.org/2000/svg">
<path d="M14.0009 24.8945C19.4502 24.8945 23.9619 20.373 23.9619 14.9336C23.9619 9.48438 19.4404 4.97266 13.9912 4.97266C8.55172 4.97266 4.04 9.48438 4.04 14.9336C4.04 20.373 8.56148 24.8945 14.0009 24.8945ZM14.0009 16.5156C13.122 16.5156 12.4287 15.8125 12.4287 14.9434C12.4287 14.3281 12.7802 13.8008 13.3173 13.5176V8.67383C13.3173 8.29297 13.6103 8 13.9912 8C14.372 8 14.6748 8.29297 14.6748 8.67383V13.5273C15.2216 13.791 15.5732 14.3281 15.5732 14.9434C15.5732 15.8125 14.8701 16.5156 14.0009 16.5156ZM12.9462 5.5H15.0361V4.07422C15.0361 3.48828 14.5771 3 13.9912 3C13.4248 3 12.9462 3.48828 12.9462 4.07422V5.5ZM20.0849 7.6875L21.5205 9.19141L22.6142 8.08789C22.8388 7.86328 22.9658 7.56055 22.9658 7.29688C22.9658 6.75 22.5263 6.31055 21.9599 6.31055C21.6279 6.31055 21.3935 6.4082 21.1591 6.63281L20.0849 7.6875Z" fill="currentColor"/>
</svg>
