<svg  viewBox="0 0 28 28"  xmlns="http://www.w3.org/2000/svg">
<path d="M14.0064 7.2088C14.4654 7.2088 14.8462 6.82794 14.8462 6.35919V4.25958C14.8462 3.79083 14.4654 3.40997 14.0064 3.40997C13.5377 3.40997 13.1568 3.79083 13.1568 4.25958V6.35919C13.1568 6.82794 13.5377 7.2088 14.0064 7.2088ZM18.7916 9.21075C19.1236 9.53302 19.6607 9.54278 19.9927 9.21075L21.4869 7.71661C21.8091 7.39435 21.8091 6.84747 21.4869 6.51544C21.1646 6.19317 20.6275 6.19317 20.2955 6.51544L18.7916 8.01935C18.4693 8.35138 18.4693 8.88849 18.7916 9.21075ZM20.774 14.0057C20.774 14.4647 21.1646 14.8455 21.6236 14.8455H23.7232C24.1822 14.8455 24.563 14.4647 24.563 14.0057C24.563 13.5467 24.1822 13.1561 23.7232 13.1561H21.6236C21.1646 13.1561 20.774 13.5467 20.774 14.0057ZM18.7916 18.8006C18.4693 19.1327 18.4693 19.6698 18.7916 19.992L20.2955 21.5057C20.6275 21.8182 21.1646 21.8084 21.4869 21.4959C21.8091 21.1639 21.8091 20.6268 21.4869 20.3045L19.983 18.8006C19.6607 18.4881 19.1236 18.4881 18.7916 18.8006ZM14.0064 20.8026C13.5377 20.8026 13.1568 21.1834 13.1568 21.6424V23.7518C13.1568 24.2108 13.5377 24.5916 14.0064 24.5916C14.4654 24.5916 14.8462 24.2108 14.8462 23.7518V21.6424C14.8462 21.1834 14.4654 20.8026 14.0064 20.8026ZM9.21148 18.8006C8.87945 18.4881 8.33258 18.4881 8.01031 18.8006L6.51617 20.2948C6.19391 20.617 6.19391 21.1541 6.50641 21.4862C6.82867 21.7987 7.37555 21.8084 7.70758 21.4959L9.20172 19.992C9.52398 19.6698 9.52398 19.1327 9.21148 18.8006ZM7.22906 14.0057C7.22906 13.5467 6.83844 13.1561 6.37945 13.1561H4.27985C3.82086 13.1561 3.44 13.5467 3.44 14.0057C3.44 14.4647 3.82086 14.8455 4.27985 14.8455H6.37945C6.83844 14.8455 7.22906 14.4647 7.22906 14.0057ZM9.20172 9.21075C9.52398 8.89825 9.52398 8.34161 9.21148 8.01935L7.71734 6.51544C7.39508 6.20294 6.8482 6.19317 6.52594 6.51544C6.20367 6.84747 6.20367 7.39435 6.51617 7.70685L8.01031 9.21075C8.33258 9.53302 8.86969 9.53302 9.20172 9.21075Z" fill="currentColor"/>
<path d="M13.9966 18.9862C16.7115 18.9862 18.9673 16.7303 18.9673 14.0057C18.9673 11.2713 16.7115 9.01544 13.9966 9.01544C11.2818 9.01544 9.02594 11.2713 9.02594 14.0057C9.02594 16.7303 11.2818 18.9862 13.9966 18.9862Z" fill="currentColor"/>
</svg>
