<svg  viewBox="0 0 28 28"  xmlns="http://www.w3.org/2000/svg">
<path d="M19.2877 17.27C19.2877 14.3794 16.8952 11.9673 14.0045 11.9673C11.1041 11.9673 8.71155 14.3794 8.71155 17.27C8.71155 17.9829 8.85804 18.6567 9.13147 19.272H18.8678C19.1412 18.6567 19.2877 17.9829 19.2877 17.27ZM3.60413 17.8266H6.00647C6.51429 17.8266 6.89515 17.4751 6.88538 17.0356C6.87561 16.5962 6.50452 16.2446 6.00647 16.2446H3.60413C3.09632 16.2446 2.73499 16.5962 2.73499 17.0356C2.73499 17.4751 3.09632 17.8266 3.60413 17.8266ZM7.78382 12.1919C8.13538 12.5532 8.66272 12.563 8.96546 12.2505C9.26819 11.938 9.26819 11.4204 8.90687 11.0688L7.20765 9.36963C6.84632 8.99854 6.34827 9.01807 6.03577 9.3208C5.72327 9.62354 5.71351 10.1313 6.0846 10.4927L7.78382 12.1919ZM19.0338 12.2505C19.3463 12.5532 19.8639 12.5532 20.2155 12.1919L21.9147 10.4927C22.2858 10.1313 22.2662 9.6333 21.9635 9.3208C21.6608 9.0083 21.153 8.99854 20.7916 9.36963L19.0924 11.0688C18.7311 11.4204 18.7213 11.9477 19.0338 12.2505ZM21.9928 17.8266H24.3952C24.903 17.8266 25.2643 17.4751 25.2643 17.0356C25.2643 16.5962 24.903 16.2446 24.3952 16.2446H21.9928C21.4948 16.2446 21.1041 16.5962 21.1139 17.0356C21.1237 17.4751 21.4948 17.8266 21.9928 17.8266ZM14.0045 10.1704C14.4342 10.1606 14.7955 9.78955 14.7955 9.2915V6.88916C14.7955 6.38135 14.4342 6.02002 14.0045 6.02002C13.5651 6.02002 13.2038 6.38135 13.2038 6.88916V9.2915C13.2038 9.78955 13.5651 10.1802 14.0045 10.1704Z" fill="currentColor"/>
<path d="M2.33459 21.977H25.6647C26.1237 21.977 26.5143 21.6255 26.5143 21.1958C26.5143 20.7661 26.1237 20.4145 25.6647 20.4145H2.33459C1.87561 20.4145 1.48499 20.7661 1.48499 21.1958C1.48499 21.6255 1.87561 21.977 2.33459 21.977Z" fill="currentColor"/>
</svg>
