<svg viewBox="0 0 28 28"  xmlns="http://www.w3.org/2000/svg">
<path d="M14.0009 23.9619C19.4502 23.9619 23.9619 19.4404 23.9619 14.0009C23.9619 8.5517 19.4404 4.03998 13.9912 4.03998C8.55171 4.03998 4.03999 8.5517 4.03999 14.0009C4.03999 19.4404 8.56147 23.9619 14.0009 23.9619ZM14.0009 22.3017C9.39155 22.3017 5.70991 18.6103 5.70991 14.0009C5.70991 9.39154 9.38179 5.70014 13.9912 5.70014C18.6005 5.70014 22.292 9.39154 22.3017 14.0009C22.3115 18.6103 18.6103 22.3017 14.0009 22.3017Z" fill="currentColor"/>
<path d="M14.0009 20.1923C17.3896 20.1923 20.1923 17.3798 20.1923 14.0009C20.1923 10.6122 17.3798 7.79974 14.0009 7.79974C10.6123 7.79974 7.80952 10.6122 7.80952 14.0009C7.80952 17.3798 10.622 20.1923 14.0009 20.1923ZM14.0009 18.6201C11.4912 18.6201 9.38179 16.5107 9.38179 14.0009C9.38179 11.4716 11.4814 9.372 14.0009 9.372C16.5107 9.372 18.6201 11.4814 18.6201 14.0009C18.6201 16.5205 16.5205 18.6201 14.0009 18.6201Z" fill="currentColor"/>
<path d="M14.0107 16.5302C15.3974 16.5302 16.54 15.3974 16.54 13.9911C16.54 12.6044 15.3974 11.4716 14.0107 11.4716C12.6142 11.4716 11.4716 12.6044 11.4716 13.9911C11.4716 15.3974 12.6142 16.5302 14.0107 16.5302Z" fill="currentColor"/>
</svg>
