<svg   viewBox="0 0 28 28"  xmlns="http://www.w3.org/2000/svg">
<path d="M20.0463 21.2422C21.5502 21.2422 22.9565 20.4219 23.562 19.1523H23.601V20.4414C23.601 20.9297 23.933 21.2519 24.392 21.2519C24.8608 21.2519 25.1928 20.9297 25.1928 20.4023V13.8887C25.1928 11.7598 23.6303 10.3828 21.1498 10.3828C19.3139 10.3828 17.7807 11.1934 17.2241 12.4531C17.1166 12.6973 17.0385 12.9316 17.0385 13.1367C17.0385 13.5664 17.3608 13.8496 17.7807 13.8496C18.0834 13.8496 18.3178 13.7324 18.4643 13.459C19.0112 12.3262 19.8412 11.7988 21.1108 11.7988C22.6342 11.7988 23.5424 12.6484 23.5424 14.0156V14.8555L20.3881 15.0312C17.9174 15.168 16.5405 16.3105 16.5405 18.1269C16.5405 19.9922 17.976 21.2422 20.0463 21.2422ZM20.4467 19.8848C19.1284 19.8848 18.2299 19.1621 18.2299 18.0879C18.2299 17.0527 19.06 16.3594 20.5932 16.2617L23.5424 16.0762V17.1113C23.5424 18.6641 22.1655 19.8848 20.4467 19.8848Z" fill="currentColor"/>
<path d="M3.63031 21.1738C4.14789 21.1738 4.4018 20.9785 4.58734 20.4316L5.84711 16.9844H11.6088L12.8686 20.4316C13.0541 20.9785 13.308 21.1738 13.8159 21.1738C14.3334 21.1738 14.6655 20.8613 14.6655 20.373C14.6655 20.207 14.6362 20.0508 14.558 19.8457L9.97797 7.64844C9.75336 7.05273 9.35297 6.75 8.72797 6.75C8.1225 6.75 7.71234 7.04297 7.4975 7.63867L2.91742 19.8555C2.83929 20.0605 2.81 20.2168 2.81 20.3828C2.81 20.8711 3.1225 21.1738 3.63031 21.1738ZM6.32562 15.5L8.69867 8.92774H8.7475L11.1205 15.5H6.32562Z" fill="currentColor"/>
</svg>
