<svg viewBox="0 0 28 28" xmlns="http://www.w3.org/2000/svg">
<path d="M10.4505 19.1528C10.8509 19.1528 11.1146 18.9477 11.2709 18.4691L12.0814 16.0765H15.8998L16.7103 18.4691C16.8666 18.9672 17.1302 19.1528 17.5404 19.1528C18.0287 19.1528 18.3607 18.85 18.3607 18.4105C18.3607 18.2152 18.3119 18.0297 18.2337 17.8246L15.1966 9.75818C14.972 9.16248 14.5619 8.84998 13.9857 8.84998C13.4193 8.84998 13.0091 9.14294 12.7845 9.75818L9.74742 17.8246C9.6693 18.0101 9.64 18.2054 9.64 18.4105C9.64 18.8598 9.9525 19.1528 10.4505 19.1528ZM12.5111 14.807L13.8783 10.7347H14.1029L15.4701 14.807H12.5111Z" fill="currentColor"/>
</svg>
