<svg viewBox="0 0 28 28" xmlns="http://www.w3.org/2000/svg">
<path d="M8.89032 21.2138C9.4079 21.2138 9.66181 21.0185 9.84735 20.4716L11.1071 17.0244H16.8688L18.1286 20.4716C18.3141 21.0185 18.568 21.2138 19.0759 21.2138C19.5934 21.2138 19.9255 20.9013 19.9255 20.413C19.9255 20.247 19.8962 20.0908 19.818 19.8857L15.238 7.68842C15.0134 7.09271 14.613 6.78998 13.988 6.78998C13.3825 6.78998 12.9723 7.08295 12.7575 7.67865L8.17743 19.8955C8.0993 20.1005 8.07001 20.2568 8.07001 20.4228C8.07001 20.9111 8.38251 21.2138 8.89032 21.2138ZM11.5856 15.54L13.9587 8.96771H14.0075L16.3806 15.54H11.5856Z" fill="currentColor"/>
</svg>
