<svg  viewBox="0 0 28 28"  xmlns="http://www.w3.org/2000/svg">
<path fill-rule="evenodd" clip-rule="evenodd" d="M20.2908 4C23.2009 4 24.7634 5.61133 24.7634 8.47266V15.9531C24.7634 18.8144 23.2009 20.416 20.2908 20.416H13.6892L10.1638 23.6387C9.70483 24.0684 9.42163 24.2637 9.04077 24.2637C8.48413 24.2637 8.17163 23.8633 8.17163 23.2578V20.416H7.71265C4.80249 20.416 3.24 18.8242 3.23999 15.9531V8.47266C3.23999 5.60157 4.80249 4 7.71265 4H20.2908ZM8.81616 14.8105C8.4939 14.8105 8.23022 15.0743 8.23022 15.4062C8.23025 15.7285 8.49392 15.9824 8.81616 15.9824H15.4861C15.8084 15.9824 16.0622 15.7285 16.0623 15.4062C16.0623 15.0743 15.8084 14.8105 15.4861 14.8105H8.81616ZM8.81616 11.5391C8.4939 11.5391 8.23023 11.8027 8.23022 12.1152C8.23022 12.4473 8.4939 12.7109 8.81616 12.7109H19.0701C19.3923 12.7109 19.6462 12.4473 19.6462 12.1152C19.6462 11.8027 19.3923 11.5391 19.0701 11.5391H8.81616ZM8.81616 8.26758C8.4939 8.26758 8.23022 8.53125 8.23022 8.84375C8.23023 9.17579 8.4939 9.42969 8.81616 9.42969H19.0701C19.3923 9.42969 19.6462 9.17579 19.6462 8.84375C19.6462 8.53125 19.3923 8.26758 19.0701 8.26758H8.81616Z" fill="currentColor"/>
</svg>
