<svg viewBox="0 0 28 28"  xmlns="http://www.w3.org/2000/svg">
<path d="M9.97305 21.2402H18.0102C18.2836 21.2402 18.5277 21.0254 18.5277 20.7324C18.5277 20.4394 18.2836 20.2246 18.0102 20.2246H9.97305C9.70938 20.2246 9.47501 20.4394 9.47501 20.7324C9.47501 21.0254 9.70938 21.2402 9.97305 21.2402Z" fill="currentColor"/>
<path d="M13.9965 18.8086C16.7992 18.8086 18.5277 17.1386 18.5277 14.7461V8.31054C18.5277 7.8125 18.1957 7.5 17.6977 7.5C17.1996 7.5 16.8969 7.8125 16.8969 8.31054V14.6094C16.8969 16.2011 15.8324 17.3144 13.9965 17.3144C12.1606 17.3144 11.1059 16.2011 11.1059 14.6094V8.31054C11.1059 7.8125 10.7738 7.5 10.2856 7.5C9.78751 7.5 9.47501 7.8125 9.47501 8.31054V14.7461C9.47501 17.1386 11.1938 18.8086 13.9965 18.8086Z" fill="currentColor"/>
</svg>

