<svg  viewBox="0 0 28 28"  xmlns="http://www.w3.org/2000/svg">
<path d="M1.21191 3.82971C1.51464 3.53674 1.99316 3.53674 2.28613 3.82971L21.5732 23.1061C21.8662 23.3991 21.8662 23.8785 21.5732 24.1715C21.2901 24.4638 20.8027 24.4638 20.5098 24.1715L1.21191 4.89319C0.929362 4.61007 0.929362 4.11283 1.21191 3.82971Z" fill="currentColor"/>
<path d="M16.377 21.9254H6.1543C4.19156 21.9254 3.01874 20.7923 3.01855 18.8297V9.15198C3.01855 8.9659 3.03042 8.78677 3.05273 8.61585L16.377 21.9254Z" fill="currentColor"/>
<path d="M25.7344 7.5592C26.4956 7.55944 26.9939 8.11628 26.9941 8.91663V19.0729C26.9941 19.8735 26.4958 20.4301 25.7344 20.4303C25.3828 20.4303 24.9921 20.2448 24.6602 19.9518L21.1055 16.8766V11.1041L24.6602 8.03772C24.992 7.74502 25.383 7.5592 25.7344 7.5592Z" fill="currentColor"/>
<path d="M16.7402 6.06506C18.7028 6.06523 19.7773 7.199 19.7773 9.15198V18.8297C19.7773 19.0244 19.761 19.2103 19.7383 19.3883L6.4082 6.06506H16.7402Z" fill="currentColor"/>
</svg>
