<svg  viewBox="0 0 28 28"  xmlns="http://www.w3.org/2000/svg">
<path d="M5.14978 21.9294H15.638C17.6009 21.9294 18.7728 20.7966 18.7728 18.8337V9.15595C18.7728 7.20282 17.6986 6.07001 15.7357 6.07001H5.14978C3.27478 6.07001 2.01501 7.20282 2.01501 9.15595V18.8337C2.01501 20.7966 3.18689 21.9294 5.14978 21.9294ZM20.1009 16.8805L23.6556 19.9567C23.9877 20.2497 24.3783 20.4352 24.7298 20.4352C25.4916 20.4352 25.9896 19.8786 25.9896 19.0778V8.92157C25.9896 8.12079 25.4916 7.56415 24.7298 7.56415C24.3783 7.56415 23.9877 7.7497 23.6556 8.04267L20.1009 11.1091V16.8805Z" fill="currentColor"/>
</svg>
