<svg  viewBox="0 0 28 28"  xmlns="http://www.w3.org/2000/svg">
<path d="M9.46161 19.6001C9.76682 19.6001 10.0322 19.4806 10.2313 19.2684L13.9867 15.4995L17.7688 19.2684C17.9679 19.4673 18.2199 19.6001 18.5251 19.6001C19.109 19.6001 19.5868 19.1223 19.5868 18.5252C19.5868 18.22 19.4805 17.9811 19.2683 17.7687L15.4996 14L19.2816 10.2048C19.5072 9.97918 19.6 9.75358 19.6 9.46164C19.6 8.87775 19.1224 8.40002 18.5384 8.40002C18.2597 8.40002 18.0342 8.50618 17.8086 8.73178L13.9867 12.5138L10.2047 8.74505C10.0057 8.53273 9.76682 8.42656 9.46161 8.42656C8.87773 8.42656 8.39999 8.89102 8.39999 9.4749C8.39999 9.76685 8.51943 10.019 8.71849 10.218L12.4872 14L8.71849 17.782C8.51943 17.9811 8.39999 18.2332 8.39999 18.5252C8.39999 19.1223 8.87773 19.6001 9.46161 19.6001Z" fill="currentColor"/>
</svg>
