<svg viewBox="0 0 28 28"  xmlns="http://www.w3.org/2000/svg">
<path fill-rule="evenodd" clip-rule="evenodd" d="M13.9911 4.03998C19.4404 4.03998 23.9619 8.5517 23.9619 14.0009C23.9619 19.4404 19.4502 23.9619 14.0009 23.9619C8.56146 23.9619 4.03998 19.4404 4.03998 14.0009C4.03998 8.5517 8.5517 4.03998 13.9911 4.03998ZM17.3017 9.91888C17.0869 9.91888 16.9111 9.98725 16.7451 10.1533L14.0009 12.8779L11.2763 10.163C11.1201 10.0165 10.9443 9.93842 10.7197 9.93842C10.2704 9.93842 9.91888 10.2802 9.91888 10.7392C9.91888 10.954 9.99701 11.1494 10.1533 11.3056L12.8583 14.0107L10.1533 16.7255C9.99703 16.872 9.91889 17.0771 9.91888 17.2919C9.91888 17.7411 10.2704 18.1025 10.7197 18.1025C10.9443 18.1025 11.1494 18.0244 11.3056 17.8681L14.0009 15.1533L16.706 17.8681C16.8525 18.0244 17.0576 18.1025 17.2822 18.1025C17.7412 18.1025 18.1025 17.7411 18.1025 17.2919C18.1025 17.0672 18.0243 16.8622 17.8583 16.7158L15.1533 14.0107L17.8681 11.2958C18.0439 11.1201 18.1122 10.9443 18.1122 10.7197C18.1122 10.2705 17.7509 9.9189 17.3017 9.91888Z" fill="currentColor"/>
</svg>
