<svg  viewBox="0 0 28 28" fill="none" xmlns="http://www.w3.org/2000/svg">
<path d="M8.87012 3.5H14.8775C15.6731 3.5 16.4362 3.81607 16.9988 4.37868L21.4914 8.87132C22.054 9.43393 22.3701 10.197 22.3701 10.9926V21.25C22.3701 23.0449 20.915 24.5 19.1201 24.5H8.87012C7.07519 24.5 5.62012 23.0449 5.62012 21.25V6.75C5.62012 4.95507 7.07519 3.5 8.87012 3.5Z" fill="#cccccc"/>
<g filter="url(#filter0_d_177_25393)">
<path d="M14.8774 3.5C15.6731 3.5 16.4362 3.81606 16.9988 4.37866L21.4915 8.87134C22.0534 9.43326 22.3694 10.1951 22.3701 10.9897V11H16.8701C15.7655 11 14.8701 10.1046 14.8701 9V3.5H14.8774Z" fill="#DBDBDB"/>
</g>
<path d="M8.87272 20.5V16.1364H10.4281C10.7676 16.1364 11.0489 16.1982 11.2719 16.3217C11.4949 16.4453 11.6618 16.6143 11.7726 16.8288C11.8834 17.0419 11.9388 17.282 11.9388 17.549C11.9388 17.8175 11.8827 18.0589 11.7705 18.2734C11.6597 18.4865 11.492 18.6555 11.2676 18.7805C11.0446 18.9041 10.7641 18.9659 10.426 18.9659H9.35639V18.4077H10.3663C10.5808 18.4077 10.7548 18.3707 10.8883 18.2969C11.0219 18.2216 11.1199 18.1193 11.1824 17.9901C11.2449 17.8608 11.2761 17.7138 11.2761 17.549C11.2761 17.3842 11.2449 17.2379 11.1824 17.1101C11.1199 16.9822 11.0212 16.8821 10.8862 16.8097C10.7527 16.7372 10.5766 16.701 10.3578 16.701H9.5311V20.5H8.87272ZM13.8833 20.5H12.4706V16.1364H13.928C14.3556 16.1364 14.7227 16.2237 15.0296 16.3984C15.3364 16.5717 15.5715 16.821 15.7348 17.1463C15.8996 17.4702 15.982 17.8587 15.982 18.3118C15.982 18.7663 15.8989 19.157 15.7327 19.4837C15.5679 19.8104 15.3293 20.0618 15.0168 20.2379C14.7043 20.4126 14.3264 20.5 13.8833 20.5ZM13.129 19.9247H13.847C14.1794 19.9247 14.4557 19.8622 14.6759 19.7372C14.896 19.6108 15.0608 19.4283 15.1702 19.1896C15.2796 18.9496 15.3343 18.657 15.3343 18.3118C15.3343 17.9695 15.2796 17.679 15.1702 17.4403C15.0622 17.2017 14.901 17.0206 14.6865 16.897C14.472 16.7734 14.2057 16.7116 13.8875 16.7116H13.129V19.9247ZM16.5607 20.5V16.1364H19.2667V16.7031H17.2191V18.0327H19.0728V18.5973H17.2191V20.5H16.5607Z" fill="#FDFDFC"/>
<defs>
<filter id="filter0_d_177_25393" x="11.3701" y="1.5" width="13.5" height="13.5" filterUnits="userSpaceOnUse" color-interpolation-filters="sRGB">
<feFlood flood-opacity="0" result="BackgroundImageFix"/>
<feColorMatrix in="SourceAlpha" type="matrix" values="0 0 0 0 0 0 0 0 0 0 0 0 0 0 0 0 0 0 127 0" result="hardAlpha"/>
<feOffset dx="-0.5" dy="1"/>
<feGaussianBlur stdDeviation="1.5"/>
<feComposite in2="hardAlpha" operator="out"/>
<feColorMatrix type="matrix" values="0 0 0 0 0 0 0 0 0 0 0 0 0 0 0 0 0 0 0.14 0"/>
<feBlend mode="normal" in2="BackgroundImageFix" result="effect1_dropShadow_177_25393"/>
<feBlend mode="normal" in="SourceGraphic" in2="effect1_dropShadow_177_25393" result="shape"/>
</filter>
</defs>
</svg>
