<svg viewBox="0 0 28 28" fill="none" xmlns="http://www.w3.org/2000/svg">
<path d="M8.87012 3.5H14.8775C15.6731 3.5 16.4362 3.81607 16.9988 4.37868L21.4914 8.87132C22.054 9.43393 22.3701 10.197 22.3701 10.9926V21.25C22.3701 23.0449 20.915 24.5 19.1201 24.5H8.87012C7.07519 24.5 5.62012 23.0449 5.62012 21.25V6.75C5.62012 4.95507 7.07519 3.5 8.87012 3.5Z" fill="#cccccc"/>
<path d="M8.87012 21.5V16.785C8.87012 15.9347 9.33687 15.5 10.1304 15.5H17.8692C18.6907 15.5 19.1201 15.9347 19.1201 16.785V21.4034H18.0933L16.2263 19.1812C16.0582 18.9783 15.8155 18.901 15.5821 18.901C15.3674 18.901 15.1434 18.9879 14.9286 19.1812L13.0149 20.9396L12.2495 20.215C12.0721 20.0508 11.8667 19.9734 11.68 19.9734C11.4933 19.9734 11.3066 20.0411 11.1292 20.215L9.89699 21.5H8.87012ZM12.3241 19.1812C12.8749 19.1812 13.3323 18.6981 13.3323 18.1377C13.3323 17.5579 12.8749 17.1135 12.3241 17.0942C11.764 17.0749 11.3159 17.5579 11.3159 18.1377C11.3159 18.6981 11.764 19.1812 12.3241 19.1812Z" fill="#eee"/>
<g filter="url(#filter0_d_177_25404)">
<path d="M14.8774 3.5C15.6731 3.5 16.4362 3.81606 16.9988 4.37866L21.4915 8.87134C22.0534 9.43326 22.3694 10.1951 22.3701 10.9897V11H16.8701C15.7655 11 14.8701 10.1046 14.8701 9V3.5H14.8774Z" fill="#DBDBDB"/>
</g>
<defs>
<filter id="filter0_d_177_25404" x="11.3701" y="1.5" width="13.5" height="13.5" filterUnits="userSpaceOnUse" color-interpolation-filters="sRGB">
<feFlood flood-opacity="0" result="BackgroundImageFix"/>
<feColorMatrix in="SourceAlpha" type="matrix" values="0 0 0 0 0 0 0 0 0 0 0 0 0 0 0 0 0 0 127 0" result="hardAlpha"/>
<feOffset dx="-0.5" dy="1"/>
<feGaussianBlur stdDeviation="1.5"/>
<feComposite in2="hardAlpha" operator="out"/>
<feColorMatrix type="matrix" values="0 0 0 0 0 0 0 0 0 0 0 0 0 0 0 0 0 0 0.14 0"/>
<feBlend mode="normal" in2="BackgroundImageFix" result="effect1_dropShadow_177_25404"/>
<feBlend mode="normal" in="SourceGraphic" in2="effect1_dropShadow_177_25404" result="shape"/>
</filter>
</defs>
</svg>
