<svg  viewBox="0 0 28 28" fill="none" xmlns="http://www.w3.org/2000/svg">
<path d="M8.87012 3.5H14.8775C15.6731 3.5 16.4362 3.81607 16.9988 4.37868L21.4914 8.87132C22.054 9.43393 22.3701 10.197 22.3701 10.9926V21.25C22.3701 23.0449 20.915 24.5 19.1201 24.5H8.87012C7.07519 24.5 5.62012 23.0449 5.62012 21.25V6.75C5.62012 4.95507 7.07519 3.5 8.87012 3.5Z" fill="#CCCCCC"/>
<g filter="url(#filter0_d_178_20675)">
<path d="M14.8774 3.5C15.6731 3.5 16.4362 3.81606 16.9988 4.37866L21.4915 8.87134C22.0534 9.43326 22.3694 10.1951 22.3701 10.9897V11H16.8701C15.7655 11 14.8701 10.1046 14.8701 9V3.5H14.8774Z" fill="#DBDBDB"/>
</g>
<path d="M9.48302 16.251H18.4976C18.7008 16.251 18.8701 16.0869 18.8701 15.873C18.8701 15.6641 18.7008 15.5 18.4976 15.5H9.48302C9.2798 15.5 9.12012 15.6641 9.12012 15.873C9.12012 16.0869 9.2798 16.251 9.48302 16.251ZM9.48302 18.8572H18.4976C18.7008 18.8572 18.8701 18.6881 18.8701 18.4792C18.8701 18.2703 18.7008 18.1062 18.4976 18.1062H9.48302C9.2798 18.1062 9.12012 18.2703 9.12012 18.4792C9.12012 18.6881 9.2798 18.8572 9.48302 18.8572ZM9.48302 21.4583H14.6604C14.8637 21.4583 15.0282 21.2942 15.0282 21.0853C15.0282 20.8764 14.8637 20.7073 14.6604 20.7073H9.48302C9.2798 20.7073 9.12012 20.8764 9.12012 21.0853C9.12012 21.2942 9.2798 21.4583 9.48302 21.4583Z" fill="#eee"/>
<defs>
<filter id="filter0_d_178_20675" x="11.3701" y="1.5" width="13.5" height="13.5" filterUnits="userSpaceOnUse" color-interpolation-filters="sRGB">
<feFlood flood-opacity="0" result="BackgroundImageFix"/>
<feColorMatrix in="SourceAlpha" type="matrix" values="0 0 0 0 0 0 0 0 0 0 0 0 0 0 0 0 0 0 127 0" result="hardAlpha"/>
<feOffset dx="-0.5" dy="1"/>
<feGaussianBlur stdDeviation="1.5"/>
<feComposite in2="hardAlpha" operator="out"/>
<feColorMatrix type="matrix" values="0 0 0 0 0 0 0 0 0 0 0 0 0 0 0 0 0 0 0.14 0"/>
<feBlend mode="normal" in2="BackgroundImageFix" result="effect1_dropShadow_178_20675"/>
<feBlend mode="normal" in="SourceGraphic" in2="effect1_dropShadow_178_20675" result="shape"/>
</filter>
</defs>
</svg>
