<svg  viewBox="0 0 28 28" fill="none" xmlns="http://www.w3.org/2000/svg">
<path d="M8.875 3.5H14.8824C15.678 3.5 16.4411 3.81607 17.0037 4.37868L21.4963 8.87132C22.0589 9.43393 22.375 10.197 22.375 10.9926V21.25C22.375 23.0449 20.9199 24.5 19.125 24.5H8.875C7.08007 24.5 5.625 23.0449 5.625 21.25V6.75C5.625 4.95507 7.08007 3.5 8.875 3.5Z" fill="#cccccc"/>
<g filter="url(#filter0_d_177_25324)">
<path d="M14.8823 3.5C15.678 3.5 16.4411 3.81606 17.0037 4.37866L21.4963 8.87134C22.0583 9.43326 22.3742 10.1951 22.375 10.9897V11H16.875C15.7704 11 14.875 10.1046 14.875 9V3.5H14.8823Z" fill="#DBDBDB"/>
</g>
<path d="M9.6044 16.1364H10.4034L11.7926 19.5284H11.8438L13.233 16.1364H14.032V20.5H13.4055V17.3423H13.3651L12.0781 20.4936H11.5582L10.2713 17.3402H10.2308V20.5H9.6044V16.1364ZM16.1618 20.5H14.7492V16.1364H16.2066C16.6341 16.1364 17.0013 16.2237 17.3081 16.3984C17.6149 16.5717 17.85 16.821 18.0134 17.1463C18.1781 17.4702 18.2605 17.8587 18.2605 18.3118C18.2605 18.7663 18.1774 19.157 18.0112 19.4837C17.8465 19.8104 17.6078 20.0618 17.2953 20.2379C16.9828 20.4126 16.605 20.5 16.1618 20.5ZM15.4075 19.9247H16.1256C16.458 19.9247 16.7343 19.8622 16.9544 19.7372C17.1746 19.6108 17.3394 19.4283 17.4487 19.1896C17.5581 18.9496 17.6128 18.657 17.6128 18.3118C17.6128 17.9695 17.5581 17.679 17.4487 17.4403C17.3408 17.2017 17.1796 17.0206 16.9651 16.897C16.7506 16.7734 16.4843 16.7116 16.1661 16.7116H15.4075V19.9247Z" fill="#fdfdfc"/>
<defs>
<filter id="filter0_d_177_25324" x="11.375" y="1.5" width="13.5" height="13.5" filterUnits="userSpaceOnUse" color-interpolation-filters="sRGB">
<feFlood flood-opacity="0" result="BackgroundImageFix"/>
<feColorMatrix in="SourceAlpha" type="matrix" values="0 0 0 0 0 0 0 0 0 0 0 0 0 0 0 0 0 0 127 0" result="hardAlpha"/>
<feOffset dx="-0.5" dy="1"/>
<feGaussianBlur stdDeviation="1.5"/>
<feComposite in2="hardAlpha" operator="out"/>
<feColorMatrix type="matrix" values="0 0 0 0 0 0 0 0 0 0 0 0 0 0 0 0 0 0 0.14 0"/>
<feBlend mode="normal" in2="BackgroundImageFix" result="effect1_dropShadow_177_25324"/>
<feBlend mode="normal" in="SourceGraphic" in2="effect1_dropShadow_177_25324" result="shape"/>
</filter>
</defs>
</svg>
